<?xml version="1.0" encoding="UTF-8" standalone="no"?><svg xmlns="http://www.w3.org/2000/svg" xmlns:xlink="http://www.w3.org/1999/xlink" contentStyleType="text/css" height="667px" preserveAspectRatio="none" style="width:639px;height:667px;background:#FFFFFF;" version="1.1" viewBox="0 0 639 667" width="639px" zoomAndPan="magnify"><defs/><g><!--MD5=[7780b3b2cc04b4f4e061daf3c2215f83]
class songs--><g id="elem_songs"><rect codeLine="1" fill="#F1F1F1" height="162.0781" id="songs" rx="2.5" ry="2.5" style="stroke:#181818;stroke-width:0.5;" width="147" x="145.4985" y="155"/><ellipse cx="194.2485" cy="171" fill="#ADD1B2" rx="11" ry="11" style="stroke:#181818;stroke-width:1.0;"/><path d="M193.0454,171.875 L194.4985,171.875 L194.4985,171.9844 C194.4985,172.3906 194.5298,172.5469 194.6079,172.7031 C194.7641,172.9531 195.0454,173.1094 195.3423,173.1094 C195.5923,173.1094 195.8579,172.9688 196.0141,172.75 C196.1391,172.5938 196.1704,172.4375 196.1704,171.9844 L196.1704,170.0625 C196.1704,169.9063 196.1704,169.8594 196.1548,169.7031 C196.0923,169.2344 195.7798,168.9219 195.3266,168.9219 C195.0766,168.9219 194.811,169.0625 194.6391,169.2813 C194.5298,169.4531 194.4985,169.6094 194.4985,170.0625 L194.4985,170.1875 L193.0454,170.1875 L193.0454,167.7813 L197.0298,167.7813 L197.0298,168.6406 C197.0298,169.0469 197.061,169.2188 197.1391,169.375 C197.311,169.625 197.5923,169.7813 197.8735,169.7813 C198.1391,169.7813 198.4048,169.6406 198.5766,169.4219 C198.686,169.25 198.7173,169.1094 198.7173,168.6406 L198.7173,166.0938 L191.0923,166.0938 C190.6548,166.0938 190.5298,166.1094 190.3735,166.2031 C190.1235,166.3594 189.9673,166.6563 189.9673,166.9375 C189.9673,167.2188 190.1079,167.4688 190.3266,167.6406 C190.4829,167.75 190.6704,167.7813 191.0923,167.7813 L191.3423,167.7813 L191.3423,174.2969 L191.0923,174.2969 C190.686,174.2969 190.5298,174.3125 190.3735,174.4219 C190.1235,174.5938 189.9673,174.8594 189.9673,175.1563 C189.9673,175.4219 190.1079,175.6719 190.3266,175.8281 C190.4673,175.9531 190.7016,176 191.0923,176 L199.0923,176 L199.0923,173.4219 C199.0923,172.9844 199.061,172.8438 198.9829,172.6875 C198.811,172.4375 198.5298,172.2813 198.2485,172.2813 C197.9829,172.2813 197.7173,172.3906 197.5454,172.6406 C197.436,172.7969 197.4048,172.9375 197.4048,173.4219 L197.4048,174.2969 L193.0454,174.2969 L193.0454,171.875 Z " fill="#000000"/><text fill="#000000" font-family="sans-serif" font-size="14" lengthAdjust="spacing" textLength="41" x="214.7485" y="175.8467">songs</text><line style="stroke:#181818;stroke-width:0.5;" x1="146.4985" x2="291.4985" y1="187" y2="187"/><ellipse cx="156.4985" cy="200.6484" fill="#000000" rx="3" ry="3" style="stroke:#000000;stroke-width:1.0;"/><text fill="#000000" font-family="sans-serif" font-size="14" lengthAdjust="spacing" textLength="86" x="165.4985" y="203.9951">id &lt;unique&gt;</text><line style="stroke:#181818;stroke-width:1.0;" x1="146.4985" x2="291.4985" y1="211.2969" y2="211.2969"/><ellipse cx="156.4985" cy="224.9453" fill="#000000" rx="3" ry="3" style="stroke:#000000;stroke-width:1.0;"/><text fill="#000000" font-family="sans-serif" font-size="14" lengthAdjust="spacing" textLength="40" x="165.4985" y="228.292">name</text><ellipse cx="156.4985" cy="241.2422" fill="#000000" rx="3" ry="3" style="stroke:#000000;stroke-width:1.0;"/><text fill="#000000" font-family="sans-serif" font-size="14" lengthAdjust="spacing" textLength="33" x="165.4985" y="244.5889">likes</text><ellipse cx="156.4985" cy="257.5391" fill="#000000" rx="3" ry="3" style="stroke:#000000;stroke-width:1.0;"/><text fill="#000000" font-family="sans-serif" font-size="14" lengthAdjust="spacing" textLength="47" x="165.4985" y="260.8857">listens</text><text fill="#000000" font-family="sans-serif" font-size="14" lengthAdjust="spacing" textLength="37" x="165.4985" y="277.1826">lyrics</text><ellipse cx="156.4985" cy="290.1328" fill="#000000" rx="3" ry="3" style="stroke:#000000;stroke-width:1.0;"/><text fill="#000000" font-family="sans-serif" font-size="14" lengthAdjust="spacing" textLength="121" x="165.4985" y="293.4795">file_uri &lt;unique&gt;</text><ellipse cx="156.4985" cy="306.4297" fill="#000000" rx="3" ry="3" style="stroke:#000000;stroke-width:1.0;"/><text fill="#000000" font-family="sans-serif" font-size="14" lengthAdjust="spacing" textLength="67" x="165.4985" y="309.7764">author_id</text></g><!--MD5=[2a84244a1e31cb8cc9fac467c7135e19]
class songs_ganres--><g id="elem_songs_ganres"><rect codeLine="12" fill="#F1F1F1" height="80.5938" id="songs_ganres" rx="2.5" ry="2.5" style="stroke:#181818;stroke-width:0.5;" width="128" x="16.9985" y="400"/><ellipse cx="31.9985" cy="416" fill="#ADD1B2" rx="11" ry="11" style="stroke:#181818;stroke-width:1.0;"/><path d="M30.7954,416.875 L32.2485,416.875 L32.2485,416.9844 C32.2485,417.3906 32.2798,417.5469 32.3579,417.7031 C32.5141,417.9531 32.7954,418.1094 33.0923,418.1094 C33.3423,418.1094 33.6079,417.9688 33.7641,417.75 C33.8891,417.5938 33.9204,417.4375 33.9204,416.9844 L33.9204,415.0625 C33.9204,414.9063 33.9204,414.8594 33.9048,414.7031 C33.8423,414.2344 33.5298,413.9219 33.0766,413.9219 C32.8266,413.9219 32.561,414.0625 32.3891,414.2813 C32.2798,414.4531 32.2485,414.6094 32.2485,415.0625 L32.2485,415.1875 L30.7954,415.1875 L30.7954,412.7813 L34.7798,412.7813 L34.7798,413.6406 C34.7798,414.0469 34.811,414.2188 34.8891,414.375 C35.061,414.625 35.3423,414.7813 35.6235,414.7813 C35.8891,414.7813 36.1548,414.6406 36.3266,414.4219 C36.436,414.25 36.4673,414.1094 36.4673,413.6406 L36.4673,411.0938 L28.8423,411.0938 C28.4048,411.0938 28.2798,411.1094 28.1235,411.2031 C27.8735,411.3594 27.7173,411.6563 27.7173,411.9375 C27.7173,412.2188 27.8579,412.4688 28.0766,412.6406 C28.2329,412.75 28.4204,412.7813 28.8423,412.7813 L29.0923,412.7813 L29.0923,419.2969 L28.8423,419.2969 C28.436,419.2969 28.2798,419.3125 28.1235,419.4219 C27.8735,419.5938 27.7173,419.8594 27.7173,420.1563 C27.7173,420.4219 27.8579,420.6719 28.0766,420.8281 C28.2173,420.9531 28.4516,421 28.8423,421 L36.8423,421 L36.8423,418.4219 C36.8423,417.9844 36.811,417.8438 36.7329,417.6875 C36.561,417.4375 36.2798,417.2813 35.9985,417.2813 C35.7329,417.2813 35.4673,417.3906 35.2954,417.6406 C35.186,417.7969 35.1548,417.9375 35.1548,418.4219 L35.1548,419.2969 L30.7954,419.2969 L30.7954,416.875 Z " fill="#000000"/><text fill="#000000" font-family="sans-serif" font-size="14" lengthAdjust="spacing" textLength="96" x="45.9985" y="420.8467">songs_ganres</text><line style="stroke:#181818;stroke-width:0.5;" x1="17.9985" x2="143.9985" y1="432" y2="432"/><ellipse cx="27.9985" cy="445.6484" fill="#000000" rx="3" ry="3" style="stroke:#000000;stroke-width:1.0;"/><text fill="#000000" font-family="sans-serif" font-size="14" lengthAdjust="spacing" textLength="54" x="36.9985" y="448.9951">song_id</text><ellipse cx="27.9985" cy="461.9453" fill="#000000" rx="3" ry="3" style="stroke:#000000;stroke-width:1.0;"/><text fill="#000000" font-family="sans-serif" font-size="14" lengthAdjust="spacing" textLength="61" x="36.9985" y="465.292">ganre_id</text><line style="stroke:#181818;stroke-width:0.5;" x1="17.9985" x2="143.9985" y1="472.5938" y2="472.5938"/></g><!--MD5=[90e44db7ed257900f33d9025431dc5a7]
class ganres--><g id="elem_ganres"><rect codeLine="17" fill="#F1F1F1" height="96.8906" id="ganres" rx="2.5" ry="2.5" style="stroke:#181818;stroke-width:0.5;" width="139" x="10.4985" y="564"/><ellipse cx="52.0485" cy="580" fill="#ADD1B2" rx="11" ry="11" style="stroke:#181818;stroke-width:1.0;"/><path d="M50.8454,580.875 L52.2985,580.875 L52.2985,580.9844 C52.2985,581.3906 52.3298,581.5469 52.4079,581.7031 C52.5641,581.9531 52.8454,582.1094 53.1423,582.1094 C53.3923,582.1094 53.6579,581.9688 53.8141,581.75 C53.9391,581.5938 53.9704,581.4375 53.9704,580.9844 L53.9704,579.0625 C53.9704,578.9063 53.9704,578.8594 53.9548,578.7031 C53.8923,578.2344 53.5798,577.9219 53.1266,577.9219 C52.8766,577.9219 52.611,578.0625 52.4391,578.2813 C52.3298,578.4531 52.2985,578.6094 52.2985,579.0625 L52.2985,579.1875 L50.8454,579.1875 L50.8454,576.7813 L54.8298,576.7813 L54.8298,577.6406 C54.8298,578.0469 54.861,578.2188 54.9391,578.375 C55.111,578.625 55.3923,578.7813 55.6735,578.7813 C55.9391,578.7813 56.2048,578.6406 56.3766,578.4219 C56.486,578.25 56.5173,578.1094 56.5173,577.6406 L56.5173,575.0938 L48.8923,575.0938 C48.4548,575.0938 48.3298,575.1094 48.1735,575.2031 C47.9235,575.3594 47.7673,575.6563 47.7673,575.9375 C47.7673,576.2188 47.9079,576.4688 48.1266,576.6406 C48.2829,576.75 48.4704,576.7813 48.8923,576.7813 L49.1423,576.7813 L49.1423,583.2969 L48.8923,583.2969 C48.486,583.2969 48.3298,583.3125 48.1735,583.4219 C47.9235,583.5938 47.7673,583.8594 47.7673,584.1563 C47.7673,584.4219 47.9079,584.6719 48.1266,584.8281 C48.2673,584.9531 48.5016,585 48.8923,585 L56.8923,585 L56.8923,582.4219 C56.8923,581.9844 56.861,581.8438 56.7829,581.6875 C56.611,581.4375 56.3298,581.2813 56.0485,581.2813 C55.7829,581.2813 55.5173,581.3906 55.3454,581.6406 C55.236,581.7969 55.2048,581.9375 55.2048,582.4219 L55.2048,583.2969 L50.8454,583.2969 L50.8454,580.875 Z " fill="#000000"/><text fill="#000000" font-family="sans-serif" font-size="14" lengthAdjust="spacing" textLength="48" x="71.9485" y="584.8467">ganres</text><line style="stroke:#181818;stroke-width:0.5;" x1="11.4985" x2="148.4985" y1="596" y2="596"/><ellipse cx="21.4985" cy="609.6484" fill="#000000" rx="3" ry="3" style="stroke:#000000;stroke-width:1.0;"/><text fill="#000000" font-family="sans-serif" font-size="14" lengthAdjust="spacing" textLength="86" x="30.4985" y="612.9951">id &lt;unique&gt;</text><line style="stroke:#181818;stroke-width:1.0;" x1="11.4985" x2="148.4985" y1="620.2969" y2="620.2969"/><ellipse cx="21.4985" cy="633.9453" fill="#000000" rx="3" ry="3" style="stroke:#000000;stroke-width:1.0;"/><text fill="#000000" font-family="sans-serif" font-size="14" lengthAdjust="spacing" textLength="113" x="30.4985" y="637.292">name &lt;unique&gt;</text><text fill="#000000" font-family="sans-serif" font-size="14" lengthAdjust="spacing" textLength="82" x="30.4985" y="653.5889">description</text></g><!--MD5=[1aa4b0d08578cc08712834368feed0d2]
class authors--><g id="elem_authors"><rect codeLine="24" fill="#F1F1F1" height="113.1875" id="authors" rx="2.5" ry="2.5" style="stroke:#181818;stroke-width:0.5;" width="112" x="195.9985" y="384"/><ellipse cx="222.6985" cy="400" fill="#ADD1B2" rx="11" ry="11" style="stroke:#181818;stroke-width:1.0;"/><path d="M221.4954,400.875 L222.9485,400.875 L222.9485,400.9844 C222.9485,401.3906 222.9798,401.5469 223.0579,401.7031 C223.2141,401.9531 223.4954,402.1094 223.7923,402.1094 C224.0423,402.1094 224.3079,401.9688 224.4641,401.75 C224.5891,401.5938 224.6204,401.4375 224.6204,400.9844 L224.6204,399.0625 C224.6204,398.9063 224.6204,398.8594 224.6048,398.7031 C224.5423,398.2344 224.2298,397.9219 223.7766,397.9219 C223.5266,397.9219 223.261,398.0625 223.0891,398.2813 C222.9798,398.4531 222.9485,398.6094 222.9485,399.0625 L222.9485,399.1875 L221.4954,399.1875 L221.4954,396.7813 L225.4798,396.7813 L225.4798,397.6406 C225.4798,398.0469 225.511,398.2188 225.5891,398.375 C225.761,398.625 226.0423,398.7813 226.3235,398.7813 C226.5891,398.7813 226.8548,398.6406 227.0266,398.4219 C227.136,398.25 227.1673,398.1094 227.1673,397.6406 L227.1673,395.0938 L219.5423,395.0938 C219.1048,395.0938 218.9798,395.1094 218.8235,395.2031 C218.5735,395.3594 218.4173,395.6563 218.4173,395.9375 C218.4173,396.2188 218.5579,396.4688 218.7766,396.6406 C218.9329,396.75 219.1204,396.7813 219.5423,396.7813 L219.7923,396.7813 L219.7923,403.2969 L219.5423,403.2969 C219.136,403.2969 218.9798,403.3125 218.8235,403.4219 C218.5735,403.5938 218.4173,403.8594 218.4173,404.1563 C218.4173,404.4219 218.5579,404.6719 218.7766,404.8281 C218.9173,404.9531 219.1516,405 219.5423,405 L227.5423,405 L227.5423,402.4219 C227.5423,401.9844 227.511,401.8438 227.4329,401.6875 C227.261,401.4375 226.9798,401.2813 226.6985,401.2813 C226.4329,401.2813 226.1673,401.3906 225.9954,401.6406 C225.886,401.7969 225.8548,401.9375 225.8548,402.4219 L225.8548,403.2969 L221.4954,403.2969 L221.4954,400.875 Z " fill="#000000"/><text fill="#000000" font-family="sans-serif" font-size="14" lengthAdjust="spacing" textLength="54" x="239.2985" y="404.8467">authors</text><line style="stroke:#181818;stroke-width:0.5;" x1="196.9985" x2="306.9985" y1="416" y2="416"/><ellipse cx="206.9985" cy="429.6484" fill="#000000" rx="3" ry="3" style="stroke:#000000;stroke-width:1.0;"/><text fill="#000000" font-family="sans-serif" font-size="14" lengthAdjust="spacing" textLength="86" x="215.9985" y="432.9951">id &lt;unique&gt;</text><line style="stroke:#181818;stroke-width:1.0;" x1="196.9985" x2="306.9985" y1="440.2969" y2="440.2969"/><ellipse cx="206.9985" cy="453.9453" fill="#000000" rx="3" ry="3" style="stroke:#000000;stroke-width:1.0;"/><text fill="#000000" font-family="sans-serif" font-size="14" lengthAdjust="spacing" textLength="70" x="215.9985" y="457.292">nickname</text><text fill="#000000" font-family="sans-serif" font-size="14" lengthAdjust="spacing" textLength="77" x="215.9985" y="473.5889">first_name</text><text fill="#000000" font-family="sans-serif" font-size="14" lengthAdjust="spacing" textLength="73" x="215.9985" y="489.8857">last_name</text></g><!--MD5=[8413f8248b2da7966d2de021109ec289]
class users--><g id="elem_users"><rect codeLine="32" fill="#F1F1F1" height="113.1875" id="users" rx="2.5" ry="2.5" style="stroke:#181818;stroke-width:0.5;" width="138" x="389.9985" y="384"/><ellipse cx="436.2485" cy="400" fill="#ADD1B2" rx="11" ry="11" style="stroke:#181818;stroke-width:1.0;"/><path d="M435.0454,400.875 L436.4985,400.875 L436.4985,400.9844 C436.4985,401.3906 436.5298,401.5469 436.6079,401.7031 C436.7641,401.9531 437.0454,402.1094 437.3423,402.1094 C437.5923,402.1094 437.8579,401.9688 438.0141,401.75 C438.1391,401.5938 438.1704,401.4375 438.1704,400.9844 L438.1704,399.0625 C438.1704,398.9063 438.1704,398.8594 438.1548,398.7031 C438.0923,398.2344 437.7798,397.9219 437.3266,397.9219 C437.0766,397.9219 436.811,398.0625 436.6391,398.2813 C436.5298,398.4531 436.4985,398.6094 436.4985,399.0625 L436.4985,399.1875 L435.0454,399.1875 L435.0454,396.7813 L439.0298,396.7813 L439.0298,397.6406 C439.0298,398.0469 439.061,398.2188 439.1391,398.375 C439.311,398.625 439.5923,398.7813 439.8735,398.7813 C440.1391,398.7813 440.4048,398.6406 440.5766,398.4219 C440.686,398.25 440.7173,398.1094 440.7173,397.6406 L440.7173,395.0938 L433.0923,395.0938 C432.6548,395.0938 432.5298,395.1094 432.3735,395.2031 C432.1235,395.3594 431.9673,395.6563 431.9673,395.9375 C431.9673,396.2188 432.1079,396.4688 432.3266,396.6406 C432.4829,396.75 432.6704,396.7813 433.0923,396.7813 L433.3423,396.7813 L433.3423,403.2969 L433.0923,403.2969 C432.686,403.2969 432.5298,403.3125 432.3735,403.4219 C432.1235,403.5938 431.9673,403.8594 431.9673,404.1563 C431.9673,404.4219 432.1079,404.6719 432.3266,404.8281 C432.4673,404.9531 432.7016,405 433.0923,405 L441.0923,405 L441.0923,402.4219 C441.0923,401.9844 441.061,401.8438 440.9829,401.6875 C440.811,401.4375 440.5298,401.2813 440.2485,401.2813 C439.9829,401.2813 439.7173,401.3906 439.5454,401.6406 C439.436,401.7969 439.4048,401.9375 439.4048,402.4219 L439.4048,403.2969 L435.0454,403.2969 L435.0454,400.875 Z " fill="#000000"/><text fill="#000000" font-family="sans-serif" font-size="14" lengthAdjust="spacing" textLength="37" x="456.7485" y="404.8467">users</text><line style="stroke:#181818;stroke-width:0.5;" x1="390.9985" x2="526.9985" y1="416" y2="416"/><ellipse cx="400.9985" cy="429.6484" fill="#000000" rx="3" ry="3" style="stroke:#000000;stroke-width:1.0;"/><text fill="#000000" font-family="sans-serif" font-size="14" lengthAdjust="spacing" textLength="86" x="409.9985" y="432.9951">id &lt;unique&gt;</text><line style="stroke:#181818;stroke-width:1.0;" x1="390.9985" x2="526.9985" y1="440.2969" y2="440.2969"/><ellipse cx="400.9985" cy="453.9453" fill="#000000" rx="3" ry="3" style="stroke:#000000;stroke-width:1.0;"/><text fill="#000000" font-family="sans-serif" font-size="14" lengthAdjust="spacing" textLength="112" x="409.9985" y="457.292">email &lt;unique&gt;</text><text fill="#000000" font-family="sans-serif" font-size="14" lengthAdjust="spacing" textLength="77" x="409.9985" y="473.5889">first_name</text><text fill="#000000" font-family="sans-serif" font-size="14" lengthAdjust="spacing" textLength="73" x="409.9985" y="489.8857">last_name</text></g><!--MD5=[822156b9135e361491208f873d4c303b]
class playlists--><g id="elem_playlists"><rect codeLine="40" fill="#F1F1F1" height="113.1875" id="playlists" rx="2.5" ry="2.5" style="stroke:#181818;stroke-width:0.5;" width="112" x="343.9985" y="179.5"/><ellipse cx="368.4485" cy="195.5" fill="#ADD1B2" rx="11" ry="11" style="stroke:#181818;stroke-width:1.0;"/><path d="M367.2454,196.375 L368.6985,196.375 L368.6985,196.4844 C368.6985,196.8906 368.7298,197.0469 368.8079,197.2031 C368.9641,197.4531 369.2454,197.6094 369.5423,197.6094 C369.7923,197.6094 370.0579,197.4688 370.2141,197.25 C370.3391,197.0938 370.3704,196.9375 370.3704,196.4844 L370.3704,194.5625 C370.3704,194.4063 370.3704,194.3594 370.3548,194.2031 C370.2923,193.7344 369.9798,193.4219 369.5266,193.4219 C369.2766,193.4219 369.011,193.5625 368.8391,193.7813 C368.7298,193.9531 368.6985,194.1094 368.6985,194.5625 L368.6985,194.6875 L367.2454,194.6875 L367.2454,192.2813 L371.2298,192.2813 L371.2298,193.1406 C371.2298,193.5469 371.261,193.7188 371.3391,193.875 C371.511,194.125 371.7923,194.2813 372.0735,194.2813 C372.3391,194.2813 372.6048,194.1406 372.7766,193.9219 C372.886,193.75 372.9173,193.6094 372.9173,193.1406 L372.9173,190.5938 L365.2923,190.5938 C364.8548,190.5938 364.7298,190.6094 364.5735,190.7031 C364.3235,190.8594 364.1673,191.1563 364.1673,191.4375 C364.1673,191.7188 364.3079,191.9688 364.5266,192.1406 C364.6829,192.25 364.8704,192.2813 365.2923,192.2813 L365.5423,192.2813 L365.5423,198.7969 L365.2923,198.7969 C364.886,198.7969 364.7298,198.8125 364.5735,198.9219 C364.3235,199.0938 364.1673,199.3594 364.1673,199.6563 C364.1673,199.9219 364.3079,200.1719 364.5266,200.3281 C364.6673,200.4531 364.9016,200.5 365.2923,200.5 L373.2923,200.5 L373.2923,197.9219 C373.2923,197.4844 373.261,197.3438 373.1829,197.1875 C373.011,196.9375 372.7298,196.7813 372.4485,196.7813 C372.1829,196.7813 371.9173,196.8906 371.7454,197.1406 C371.636,197.2969 371.6048,197.4375 371.6048,197.9219 L371.6048,198.7969 L367.2454,198.7969 L367.2454,196.375 Z " fill="#000000"/><text fill="#000000" font-family="sans-serif" font-size="14" lengthAdjust="spacing" textLength="59" x="384.5485" y="200.3467">playlists</text><line style="stroke:#181818;stroke-width:0.5;" x1="344.9985" x2="454.9985" y1="211.5" y2="211.5"/><ellipse cx="354.9985" cy="225.1484" fill="#000000" rx="3" ry="3" style="stroke:#000000;stroke-width:1.0;"/><text fill="#000000" font-family="sans-serif" font-size="14" lengthAdjust="spacing" textLength="86" x="363.9985" y="228.4951">id &lt;unique&gt;</text><line style="stroke:#181818;stroke-width:1.0;" x1="344.9985" x2="454.9985" y1="235.7969" y2="235.7969"/><ellipse cx="354.9985" cy="249.4453" fill="#000000" rx="3" ry="3" style="stroke:#000000;stroke-width:1.0;"/><text fill="#000000" font-family="sans-serif" font-size="14" lengthAdjust="spacing" textLength="40" x="363.9985" y="252.792">name</text><ellipse cx="354.9985" cy="265.7422" fill="#000000" rx="3" ry="3" style="stroke:#000000;stroke-width:1.0;"/><text fill="#000000" font-family="sans-serif" font-size="14" lengthAdjust="spacing" textLength="64" x="363.9985" y="269.0889">owner_id</text><ellipse cx="354.9985" cy="282.0391" fill="#000000" rx="3" ry="3" style="stroke:#000000;stroke-width:1.0;"/><text fill="#000000" font-family="sans-serif" font-size="14" lengthAdjust="spacing" textLength="62" x="363.9985" y="285.3857">is_public</text></g><!--MD5=[cae4a22f856d2eac668ec4bde4531000]
class playlists_songs--><g id="elem_playlists_songs"><rect codeLine="48" fill="#F1F1F1" height="80.5938" id="playlists_songs" rx="2.5" ry="2.5" style="stroke:#181818;stroke-width:0.5;" width="139" x="203.4985" y="7"/><ellipse cx="218.4985" cy="23" fill="#ADD1B2" rx="11" ry="11" style="stroke:#181818;stroke-width:1.0;"/><path d="M217.2954,23.875 L218.7485,23.875 L218.7485,23.9844 C218.7485,24.3906 218.7798,24.5469 218.8579,24.7031 C219.0141,24.9531 219.2954,25.1094 219.5923,25.1094 C219.8423,25.1094 220.1079,24.9688 220.2641,24.75 C220.3891,24.5938 220.4204,24.4375 220.4204,23.9844 L220.4204,22.0625 C220.4204,21.9063 220.4204,21.8594 220.4048,21.7031 C220.3423,21.2344 220.0298,20.9219 219.5766,20.9219 C219.3266,20.9219 219.061,21.0625 218.8891,21.2813 C218.7798,21.4531 218.7485,21.6094 218.7485,22.0625 L218.7485,22.1875 L217.2954,22.1875 L217.2954,19.7813 L221.2798,19.7813 L221.2798,20.6406 C221.2798,21.0469 221.311,21.2188 221.3891,21.375 C221.561,21.625 221.8423,21.7813 222.1235,21.7813 C222.3891,21.7813 222.6548,21.6406 222.8266,21.4219 C222.936,21.25 222.9673,21.1094 222.9673,20.6406 L222.9673,18.0938 L215.3423,18.0938 C214.9048,18.0938 214.7798,18.1094 214.6235,18.2031 C214.3735,18.3594 214.2173,18.6563 214.2173,18.9375 C214.2173,19.2188 214.3579,19.4688 214.5766,19.6406 C214.7329,19.75 214.9204,19.7813 215.3423,19.7813 L215.5923,19.7813 L215.5923,26.2969 L215.3423,26.2969 C214.936,26.2969 214.7798,26.3125 214.6235,26.4219 C214.3735,26.5938 214.2173,26.8594 214.2173,27.1563 C214.2173,27.4219 214.3579,27.6719 214.5766,27.8281 C214.7173,27.9531 214.9516,28 215.3423,28 L223.3423,28 L223.3423,25.4219 C223.3423,24.9844 223.311,24.8438 223.2329,24.6875 C223.061,24.4375 222.7798,24.2813 222.4985,24.2813 C222.2329,24.2813 221.9673,24.3906 221.7954,24.6406 C221.686,24.7969 221.6548,24.9375 221.6548,25.4219 L221.6548,26.2969 L217.2954,26.2969 L217.2954,23.875 Z " fill="#000000"/><text fill="#000000" font-family="sans-serif" font-size="14" lengthAdjust="spacing" textLength="107" x="232.4985" y="27.8467">playlists_songs</text><line style="stroke:#181818;stroke-width:0.5;" x1="204.4985" x2="341.4985" y1="39" y2="39"/><ellipse cx="214.4985" cy="52.6484" fill="#000000" rx="3" ry="3" style="stroke:#000000;stroke-width:1.0;"/><text fill="#000000" font-family="sans-serif" font-size="14" lengthAdjust="spacing" textLength="72" x="223.4985" y="55.9951">playlist_id</text><ellipse cx="214.4985" cy="68.9453" fill="#000000" rx="3" ry="3" style="stroke:#000000;stroke-width:1.0;"/><text fill="#000000" font-family="sans-serif" font-size="14" lengthAdjust="spacing" textLength="54" x="223.4985" y="72.292">song_id</text><line style="stroke:#181818;stroke-width:0.5;" x1="204.4985" x2="341.4985" y1="79.5938" y2="79.5938"/></g><!--MD5=[a5dd90ade95e2eaa961b575a9decf94d]
class playlists_users--><g id="elem_playlists_users"><rect codeLine="53" fill="#F1F1F1" height="80.5938" id="playlists_users" rx="2.5" ry="2.5" style="stroke:#181818;stroke-width:0.5;" width="135" x="420.4985" y="7"/><ellipse cx="435.4985" cy="23" fill="#ADD1B2" rx="11" ry="11" style="stroke:#181818;stroke-width:1.0;"/><path d="M434.2954,23.875 L435.7485,23.875 L435.7485,23.9844 C435.7485,24.3906 435.7798,24.5469 435.8579,24.7031 C436.0141,24.9531 436.2954,25.1094 436.5923,25.1094 C436.8423,25.1094 437.1079,24.9688 437.2641,24.75 C437.3891,24.5938 437.4204,24.4375 437.4204,23.9844 L437.4204,22.0625 C437.4204,21.9063 437.4204,21.8594 437.4048,21.7031 C437.3423,21.2344 437.0298,20.9219 436.5766,20.9219 C436.3266,20.9219 436.061,21.0625 435.8891,21.2813 C435.7798,21.4531 435.7485,21.6094 435.7485,22.0625 L435.7485,22.1875 L434.2954,22.1875 L434.2954,19.7813 L438.2798,19.7813 L438.2798,20.6406 C438.2798,21.0469 438.311,21.2188 438.3891,21.375 C438.561,21.625 438.8423,21.7813 439.1235,21.7813 C439.3891,21.7813 439.6548,21.6406 439.8266,21.4219 C439.936,21.25 439.9673,21.1094 439.9673,20.6406 L439.9673,18.0938 L432.3423,18.0938 C431.9048,18.0938 431.7798,18.1094 431.6235,18.2031 C431.3735,18.3594 431.2173,18.6563 431.2173,18.9375 C431.2173,19.2188 431.3579,19.4688 431.5766,19.6406 C431.7329,19.75 431.9204,19.7813 432.3423,19.7813 L432.5923,19.7813 L432.5923,26.2969 L432.3423,26.2969 C431.936,26.2969 431.7798,26.3125 431.6235,26.4219 C431.3735,26.5938 431.2173,26.8594 431.2173,27.1563 C431.2173,27.4219 431.3579,27.6719 431.5766,27.8281 C431.7173,27.9531 431.9516,28 432.3423,28 L440.3423,28 L440.3423,25.4219 C440.3423,24.9844 440.311,24.8438 440.2329,24.6875 C440.061,24.4375 439.7798,24.2813 439.4985,24.2813 C439.2329,24.2813 438.9673,24.3906 438.7954,24.6406 C438.686,24.7969 438.6548,24.9375 438.6548,25.4219 L438.6548,26.2969 L434.2954,26.2969 L434.2954,23.875 Z " fill="#000000"/><text fill="#000000" font-family="sans-serif" font-size="14" lengthAdjust="spacing" textLength="103" x="449.4985" y="27.8467">playlists_users</text><line style="stroke:#181818;stroke-width:0.5;" x1="421.4985" x2="554.4985" y1="39" y2="39"/><ellipse cx="431.4985" cy="52.6484" fill="#000000" rx="3" ry="3" style="stroke:#000000;stroke-width:1.0;"/><text fill="#000000" font-family="sans-serif" font-size="14" lengthAdjust="spacing" textLength="72" x="440.4985" y="55.9951">playlist_id</text><ellipse cx="431.4985" cy="68.9453" fill="#000000" rx="3" ry="3" style="stroke:#000000;stroke-width:1.0;"/><text fill="#000000" font-family="sans-serif" font-size="14" lengthAdjust="spacing" textLength="50" x="440.4985" y="72.292">user_id</text><line style="stroke:#181818;stroke-width:0.5;" x1="421.4985" x2="554.4985" y1="79.5938" y2="79.5938"/></g><!--MD5=[2ac6d0d648d7df23349ce3d16a9bdb17]
link songs to songs_ganres--><g id="link_songs_songs_ganres"><path codeLine="58" d="M137.0705,201.92 C105.0855,225.726 185.8755,417.661 153.9525,441.56 " fill="none" id="songs-songs_ganres" style="stroke:#181818;stroke-width:1.0;"/><line style="stroke:#181818;stroke-width:1.0;" x1="153.6469" x2="147.7578" y1="441.6543" y2="449.7363"/><line style="stroke:#181818;stroke-width:1.0;" x1="153.6469" x2="144.2393" y1="441.6543" y2="438.2637"/><line style="stroke:#181818;stroke-width:1.0;" x1="153.6469" x2="145.9985" y1="441.6543" y2="444"/><line style="stroke:#181818;stroke-width:1.0;" x1="156.7318" x2="154.3862" y1="444.8921" y2="437.2437"/><line style="stroke:#181818;stroke-width:1.0;" x1="140.0049" x2="142.3407" y1="196.8421" y2="204.4936"/><line style="stroke:#181818;stroke-width:1.0;" x1="137.1356" x2="139.4714" y1="197.718" y2="205.3695"/><line style="stroke:#181818;stroke-width:1.0;" x1="137.3471" x2="144.9985" y1="201.8357" y2="199.5"/></g><!--MD5=[c23a8530f73b2339291cbd1065c5bf08]
link songs_ganres to ganres--><g id="link_songs_ganres_ganres"><path codeLine="59" d="M10.1433,465.581 C10.0208,470.746 13.6167,478.442 16.9985,484 C52.3889,542.16 115.2155,501.475 149.9985,560 C159.1115,575.3335 168.5985,598.5733 159.0015,605.7861 " fill="none" id="songs_ganres-ganres" style="stroke:#181818;stroke-width:1.0;"/><line style="stroke:#181818;stroke-width:1.0;" x1="155.9202" x2="153.7873" y1="610.7888" y2="603.0783"/><line style="stroke:#181818;stroke-width:1.0;" x1="158.8116" x2="156.6787" y1="609.989" y2="602.2785"/><line style="stroke:#181818;stroke-width:1.0;" x1="158.709" x2="150.9985" y1="605.8671" y2="608"/><line style="stroke:#181818;stroke-width:1.0;" x1="10.2075" x2="11.859" y1="465.5194" y2="455.6567"/><line style="stroke:#181818;stroke-width:1.0;" x1="10.2075" x2="20.1381" y1="465.5194" y2="464.3433"/><line style="stroke:#181818;stroke-width:1.0;" x1="10.2075" x2="15.9985" y1="465.5194" y2="460"/><line style="stroke:#181818;stroke-width:1.0;" x1="6" x2="11.5194" y1="464.0037" y2="469.7948"/></g><!--MD5=[4b2ffc3422d95602e7d6588636f9da3c]
link songs to authors--><g id="link_songs_authors"><path codeLine="60" d="M296.8085,312.177 C295.8955,314.817 294.3865,317.688 292.9985,320 C266.9085,363.462 221.1355,335.979 195.9985,380 C187.1535,395.49 177.4865,418.625 187.0175,425.799 " fill="none" id="songs-authors" style="stroke:#181818;stroke-width:1.0;"/><line style="stroke:#181818;stroke-width:1.0;" x1="192.2062" x2="190.0789" y1="423.0804" y2="430.7923"/><line style="stroke:#181818;stroke-width:1.0;" x1="189.3142" x2="187.1869" y1="422.2826" y2="429.9946"/><line style="stroke:#181818;stroke-width:1.0;" x1="187.2865" x2="194.9985" y1="425.8727" y2="428"/><line style="stroke:#181818;stroke-width:1.0;" x1="296.7484" x2="288.3641" y1="312.0125" y2="306.5624"/><line style="stroke:#181818;stroke-width:1.0;" x1="296.7484" x2="299.6329" y1="312.0125" y2="302.4376"/><line style="stroke:#181818;stroke-width:1.0;" x1="296.7484" x2="293.9985" y1="312.0125" y2="304.5"/><line style="stroke:#181818;stroke-width:1.0;" x1="293.6796" x2="301.1921" y1="315.2656" y2="312.5157"/></g><!--MD5=[e2ac50339910d14ee490cc5b632d291c]
link playlists to users--><g id="link_playlists_users"><path codeLine="61" d="M463.9515,267.799 C465.5485,274.094 459.4025,286.092 455.9985,295.5 C439.7855,340.311 405.9785,335.106 389.9985,380 C384.0725,396.647 372.6425,418.641 381.0065,425.709 " fill="none" id="playlists-users" style="stroke:#181818;stroke-width:1.0;"/><line style="stroke:#181818;stroke-width:1.0;" x1="386.2555" x2="384.0512" y1="423.0527" y2="430.743"/><line style="stroke:#181818;stroke-width:1.0;" x1="383.3717" x2="381.1673" y1="422.226" y2="429.9163"/><line style="stroke:#181818;stroke-width:1.0;" x1="381.3082" x2="388.9985" y1="425.7956" y2="428"/><line style="stroke:#181818;stroke-width:1.0;" x1="463.8033" x2="453.8436" y1="267.7066" y2="268.6036"/><line style="stroke:#181818;stroke-width:1.0;" x1="463.8033" x2="460.1534" y1="267.7066" y2="258.3964"/><line style="stroke:#181818;stroke-width:1.0;" x1="463.8033" x2="456.9985" y1="267.7066" y2="263.5"/><line style="stroke:#181818;stroke-width:1.0;" x1="463.4012" x2="467.6078" y1="272.1606" y2="265.3558"/></g><!--MD5=[0975b4f0b872660d3bebb42062fe734b]
link playlists_songs to playlists--><g id="link_playlists_songs_playlists"><path codeLine="62" d="M352.2985,51.847 C406.0935,64.326 280.5425,210.732 334.9955,222.72 " fill="none" id="playlists_songs-playlists" style="stroke:#181818;stroke-width:1.0;"/><line style="stroke:#181818;stroke-width:1.0;" x1="339.4052" x2="338.6295" y1="219.131" y2="227.0933"/><line style="stroke:#181818;stroke-width:1.0;" x1="336.4193" x2="335.6437" y1="218.8401" y2="226.8025"/><line style="stroke:#181818;stroke-width:1.0;" x1="335.0362" x2="342.9985" y1="222.7243" y2="223.5"/><line style="stroke:#181818;stroke-width:1.0;" x1="351.9571" x2="343.3889" y1="51.8129" y2="56.9689"/><line style="stroke:#181818;stroke-width:1.0;" x1="351.9571" x2="344.6082" y1="51.8129" y2="45.0311"/><line style="stroke:#181818;stroke-width:1.0;" x1="351.9571" x2="343.9985" y1="51.8129" y2="51"/><line style="stroke:#181818;stroke-width:1.0;" x1="353.5403" x2="354.3532" y1="55.9954" y2="48.0368"/></g><!--MD5=[c064ad7ceef1b23aa51ac53f32fe7e98]
link playlists_songs to songs--><g id="link_playlists_songs_songs"><path codeLine="63" d="M197.2415,72.925 C197.3695,78.043 200.9065,85.467 203.9985,91 C227.2715,132.643 270.1645,109.115 292.9985,151 C301.7055,166.972 311.7805,190.519 301.7655,197.488 " fill="none" id="playlists_songs-songs" style="stroke:#181818;stroke-width:1.0;"/><line style="stroke:#181818;stroke-width:1.0;" x1="298.8741" x2="296.867" y1="202.3685" y2="194.6244"/><line style="stroke:#181818;stroke-width:1.0;" x1="301.7782" x2="299.7711" y1="201.6159" y2="193.8717"/><line style="stroke:#181818;stroke-width:1.0;" x1="301.7426" x2="293.9985" y1="197.4929" y2="199.5"/><line style="stroke:#181818;stroke-width:1.0;" x1="197.4229" x2="198.6958" y1="72.737" y2="62.8183"/><line style="stroke:#181818;stroke-width:1.0;" x1="197.4229" x2="207.3013" y1="72.737" y2="71.1817"/><line style="stroke:#181818;stroke-width:1.0;" x1="197.4229" x2="202.9985" y1="72.737" y2="67"/><line style="stroke:#181818;stroke-width:1.0;" x1="193.1606" x2="198.8975" y1="71.3835" y2="76.959"/></g><!--MD5=[0315dae4b876d99a1744e9a620097b3f]
link playlists_users to playlists--><g id="link_playlists_users_playlists"><path codeLine="64" d="M412.0235,51.769 C358.5995,63.703 518.2955,210.681 465.0345,222.717 " fill="none" id="playlists_users-playlists" style="stroke:#181818;stroke-width:1.0;"/><line style="stroke:#181818;stroke-width:1.0;" x1="461.3676" x2="460.5918" y1="227.0932" y2="219.131"/><line style="stroke:#181818;stroke-width:1.0;" x1="464.3534" x2="463.5776" y1="226.8023" y2="218.84"/><line style="stroke:#181818;stroke-width:1.0;" x1="464.9608" x2="456.9985" y1="222.7242" y2="223.5"/><line style="stroke:#181818;stroke-width:1.0;" x1="412.0355" x2="419.4221" y1="51.7686" y2="45.0278"/><line style="stroke:#181818;stroke-width:1.0;" x1="412.0355" x2="420.5749" y1="51.7686" y2="56.9722"/><line style="stroke:#181818;stroke-width:1.0;" x1="412.0355" x2="419.9985" y1="51.7686" y2="51"/><line style="stroke:#181818;stroke-width:1.0;" x1="409.6605" x2="410.4291" y1="47.9792" y2="55.9422"/></g><!--MD5=[f0a94114c72853622d5cb21515f40e05]
link playlists_users to users--><g id="link_playlists_users_users"><path codeLine="65" d="M565.0855,68.307 C632.9555,91.106 608.5355,404.757 537.0035,426.782 " fill="none" id="playlists_users-users" style="stroke:#181818;stroke-width:1.0;"/><line style="stroke:#181818;stroke-width:1.0;" x1="533.5544" x2="532.3517" y1="431.3532" y2="423.4441"/><line style="stroke:#181818;stroke-width:1.0;" x1="536.5203" x2="535.3176" y1="430.9022" y2="422.9931"/><line style="stroke:#181818;stroke-width:1.0;" x1="536.9076" x2="528.9985" y1="426.7973" y2="428"/><line style="stroke:#181818;stroke-width:1.0;" x1="564.8961" x2="556.0417" y1="68.2758" y2="72.9232"/><line style="stroke:#181818;stroke-width:1.0;" x1="564.8961" x2="557.9554" y1="68.2758" y2="61.0768"/><line style="stroke:#181818;stroke-width:1.0;" x1="564.8961" x2="556.9985" y1="68.2758" y2="67"/><line style="stroke:#181818;stroke-width:1.0;" x1="566.2326" x2="567.5084" y1="72.5435" y2="64.6459"/></g><!--MD5=[628b27538113039e11c2223eb0051a9a]
@startuml
entity songs {
    *id <unique>
    - -
    *name
    *likes
    *listens
    lyrics
    *file_uri <unique>
    *author_id
}

entity songs_ganres {
    *song_id 
    *ganre_id
}

entity ganres {
    *id <unique>
    - -
    *name <unique>
    description
}

entity authors{
    *id <unique>
    - -
    * nickname
    first_name
    last_name
}

entity users{
    *id <unique>
    - -
    *email <unique>
    first_name
    last_name
}

entity playlists{
    *id <unique>
    - -
    *name
    *owner_id
    *is_public
}

entity playlists_songs{
    *playlist_id
    *song_id
}

entity playlists_users{
    *playlist_id
    *user_id
}

songs::id ||- -|{ songs_ganres::song_id
songs_ganres::ganre_id }|- -|| ganres::id
songs::author_id }|- -|| authors::id
playlists::owner_id }|- -|| users::id
playlists_songs::playlist_id }|- -|| playlists::id
playlists_songs::song_id }|- -|| songs::id
playlists_users::playlist_id }|- -|| playlists::id
playlists_users::user_id }|- -|| users::id
@enduml

PlantUML version 1.2022.9(Tue Sep 27 16:10:06 UTC 2022)
(GPL source distribution)
Java Runtime: Java(TM) SE Runtime Environment
JVM: Java HotSpot(TM) 64-Bit Server VM
Default Encoding: UTF-8
Language: en
Country: US
--></g></svg>