<?xml version="1.0" encoding="UTF-8" standalone="no"?><svg xmlns="http://www.w3.org/2000/svg" xmlns:xlink="http://www.w3.org/1999/xlink" contentStyleType="text/css" height="307px" preserveAspectRatio="none" style="width:505px;height:307px;background:#000000;" version="1.1" viewBox="0 0 505 307" width="505px" zoomAndPan="magnify"><defs/><g><!--MD5=[f35e55692cd15d3448af899285a39763]
class companies--><g id="elem_companies"><rect codeLine="1" fill="#303030" height="113.1875" id="companies" rx="2.5" ry="2.5" style="stroke:#E7E7E7;stroke-width:0.5;" width="139" x="7" y="187"/><ellipse cx="35.05" cy="203" fill="#2E5233" rx="11" ry="11" style="stroke:#E7E7E7;stroke-width:1.0;"/><path d="M33.8469,203.875 L35.3,203.875 L35.3,203.9844 C35.3,204.3906 35.3313,204.5469 35.4094,204.7031 C35.5656,204.9531 35.8469,205.1094 36.1438,205.1094 C36.3938,205.1094 36.6594,204.9688 36.8156,204.75 C36.9406,204.5938 36.9719,204.4375 36.9719,203.9844 L36.9719,202.0625 C36.9719,201.9063 36.9719,201.8594 36.9563,201.7031 C36.8938,201.2344 36.5813,200.9219 36.1281,200.9219 C35.8781,200.9219 35.6125,201.0625 35.4406,201.2813 C35.3313,201.4531 35.3,201.6094 35.3,202.0625 L35.3,202.1875 L33.8469,202.1875 L33.8469,199.7813 L37.8313,199.7813 L37.8313,200.6406 C37.8313,201.0469 37.8625,201.2188 37.9406,201.375 C38.1125,201.625 38.3938,201.7813 38.675,201.7813 C38.9406,201.7813 39.2063,201.6406 39.3781,201.4219 C39.4875,201.25 39.5188,201.1094 39.5188,200.6406 L39.5188,198.0938 L31.8937,198.0938 C31.4562,198.0938 31.3312,198.1094 31.175,198.2031 C30.925,198.3594 30.7687,198.6563 30.7687,198.9375 C30.7687,199.2188 30.9094,199.4688 31.1281,199.6406 C31.2844,199.75 31.4719,199.7813 31.8937,199.7813 L32.1438,199.7813 L32.1438,206.2969 L31.8937,206.2969 C31.4875,206.2969 31.3312,206.3125 31.175,206.4219 C30.925,206.5938 30.7687,206.8594 30.7687,207.1563 C30.7687,207.4219 30.9094,207.6719 31.1281,207.8281 C31.2687,207.9531 31.5031,208 31.8937,208 L39.8938,208 L39.8938,205.4219 C39.8938,204.9844 39.8625,204.8438 39.7844,204.6875 C39.6125,204.4375 39.3313,204.2813 39.05,204.2813 C38.7844,204.2813 38.5188,204.3906 38.3469,204.6406 C38.2375,204.7969 38.2063,204.9375 38.2063,205.4219 L38.2063,206.2969 L33.8469,206.2969 L33.8469,203.875 Z " fill="#FFFFFF"/><text fill="#FFFFFF" font-family="sans-serif" font-size="14" lengthAdjust="spacing" textLength="78" x="51.95" y="207.8467">companies</text><line style="stroke:#E7E7E7;stroke-width:0.5;" x1="8" x2="145" y1="219" y2="219"/><ellipse cx="18" cy="232.6484" fill="#000000" rx="3" ry="3" style="stroke:#000000;stroke-width:1.0;"/><text fill="#FFFFFF" font-family="sans-serif" font-size="14" lengthAdjust="spacing" textLength="86" x="27" y="235.9951">id &lt;unique&gt;</text><line style="stroke:#E7E7E7;stroke-width:1.0;" x1="8" x2="145" y1="243.2969" y2="243.2969"/><ellipse cx="18" cy="256.9453" fill="#000000" rx="3" ry="3" style="stroke:#000000;stroke-width:1.0;"/><text fill="#FFFFFF" font-family="sans-serif" font-size="14" lengthAdjust="spacing" textLength="113" x="27" y="260.292">name &lt;unique&gt;</text><ellipse cx="18" cy="273.2422" fill="#000000" rx="3" ry="3" style="stroke:#000000;stroke-width:1.0;"/><text fill="#FFFFFF" font-family="sans-serif" font-size="14" lengthAdjust="spacing" textLength="60" x="27" y="276.5889">site_link</text><text fill="#FFFFFF" font-family="sans-serif" font-size="14" lengthAdjust="spacing" textLength="55" x="27" y="292.8857">country</text></g><!--MD5=[a51b9b72d63d309ed17291ae68a5aa3e]
class planes--><g id="elem_planes"><rect codeLine="9" fill="#303030" height="113.1875" id="planes" rx="2.5" ry="2.5" style="stroke:#E7E7E7;stroke-width:0.5;" width="112" x="71.5" y="7"/><ellipse cx="101.35" cy="23" fill="#2E5233" rx="11" ry="11" style="stroke:#E7E7E7;stroke-width:1.0;"/><path d="M100.1469,23.875 L101.6,23.875 L101.6,23.9844 C101.6,24.3906 101.6313,24.5469 101.7094,24.7031 C101.8656,24.9531 102.1469,25.1094 102.4438,25.1094 C102.6938,25.1094 102.9594,24.9688 103.1156,24.75 C103.2406,24.5938 103.2719,24.4375 103.2719,23.9844 L103.2719,22.0625 C103.2719,21.9063 103.2719,21.8594 103.2563,21.7031 C103.1938,21.2344 102.8813,20.9219 102.4281,20.9219 C102.1781,20.9219 101.9125,21.0625 101.7406,21.2813 C101.6313,21.4531 101.6,21.6094 101.6,22.0625 L101.6,22.1875 L100.1469,22.1875 L100.1469,19.7813 L104.1313,19.7813 L104.1313,20.6406 C104.1313,21.0469 104.1625,21.2188 104.2406,21.375 C104.4125,21.625 104.6938,21.7813 104.975,21.7813 C105.2406,21.7813 105.5063,21.6406 105.6781,21.4219 C105.7875,21.25 105.8188,21.1094 105.8188,20.6406 L105.8188,18.0938 L98.1938,18.0938 C97.7563,18.0938 97.6313,18.1094 97.475,18.2031 C97.225,18.3594 97.0688,18.6563 97.0688,18.9375 C97.0688,19.2188 97.2094,19.4688 97.4281,19.6406 C97.5844,19.75 97.7719,19.7813 98.1938,19.7813 L98.4438,19.7813 L98.4438,26.2969 L98.1938,26.2969 C97.7875,26.2969 97.6313,26.3125 97.475,26.4219 C97.225,26.5938 97.0688,26.8594 97.0688,27.1563 C97.0688,27.4219 97.2094,27.6719 97.4281,27.8281 C97.5688,27.9531 97.8031,28 98.1938,28 L106.1938,28 L106.1938,25.4219 C106.1938,24.9844 106.1625,24.8438 106.0844,24.6875 C105.9125,24.4375 105.6313,24.2813 105.35,24.2813 C105.0844,24.2813 104.8188,24.3906 104.6469,24.6406 C104.5375,24.7969 104.5063,24.9375 104.5063,25.4219 L104.5063,26.2969 L100.1469,26.2969 L100.1469,23.875 Z " fill="#FFFFFF"/><text fill="#FFFFFF" font-family="sans-serif" font-size="14" lengthAdjust="spacing" textLength="47" x="118.65" y="27.8467">planes</text><line style="stroke:#E7E7E7;stroke-width:0.5;" x1="72.5" x2="182.5" y1="39" y2="39"/><ellipse cx="82.5" cy="52.6484" fill="#000000" rx="3" ry="3" style="stroke:#000000;stroke-width:1.0;"/><text fill="#FFFFFF" font-family="sans-serif" font-size="14" lengthAdjust="spacing" textLength="86" x="91.5" y="55.9951">id &lt;unique&gt;</text><line style="stroke:#E7E7E7;stroke-width:1.0;" x1="72.5" x2="182.5" y1="63.2969" y2="63.2969"/><ellipse cx="82.5" cy="76.9453" fill="#000000" rx="3" ry="3" style="stroke:#000000;stroke-width:1.0;"/><text fill="#FFFFFF" font-family="sans-serif" font-size="14" lengthAdjust="spacing" textLength="86" x="91.5" y="80.292">company_id</text><ellipse cx="82.5" cy="93.2422" fill="#000000" rx="3" ry="3" style="stroke:#000000;stroke-width:1.0;"/><text fill="#FFFFFF" font-family="sans-serif" font-size="14" lengthAdjust="spacing" textLength="34" x="91.5" y="96.5889">type</text><ellipse cx="82.5" cy="109.5391" fill="#000000" rx="3" ry="3" style="stroke:#000000;stroke-width:1.0;"/><text fill="#FFFFFF" font-family="sans-serif" font-size="14" lengthAdjust="spacing" textLength="28" x="91.5" y="112.8857">size</text></g><!--MD5=[8413f8248b2da7966d2de021109ec289]
class users--><g id="elem_users"><rect codeLine="17" fill="#303030" height="113.1875" id="users" rx="2.5" ry="2.5" style="stroke:#E7E7E7;stroke-width:0.5;" width="138" x="360.5" y="187"/><ellipse cx="406.75" cy="203" fill="#2E5233" rx="11" ry="11" style="stroke:#E7E7E7;stroke-width:1.0;"/><path d="M405.5469,203.875 L407,203.875 L407,203.9844 C407,204.3906 407.0313,204.5469 407.1094,204.7031 C407.2656,204.9531 407.5469,205.1094 407.8438,205.1094 C408.0938,205.1094 408.3594,204.9688 408.5156,204.75 C408.6406,204.5938 408.6719,204.4375 408.6719,203.9844 L408.6719,202.0625 C408.6719,201.9063 408.6719,201.8594 408.6563,201.7031 C408.5938,201.2344 408.2813,200.9219 407.8281,200.9219 C407.5781,200.9219 407.3125,201.0625 407.1406,201.2813 C407.0313,201.4531 407,201.6094 407,202.0625 L407,202.1875 L405.5469,202.1875 L405.5469,199.7813 L409.5313,199.7813 L409.5313,200.6406 C409.5313,201.0469 409.5625,201.2188 409.6406,201.375 C409.8125,201.625 410.0938,201.7813 410.375,201.7813 C410.6406,201.7813 410.9063,201.6406 411.0781,201.4219 C411.1875,201.25 411.2188,201.1094 411.2188,200.6406 L411.2188,198.0938 L403.5938,198.0938 C403.1563,198.0938 403.0313,198.1094 402.875,198.2031 C402.625,198.3594 402.4688,198.6563 402.4688,198.9375 C402.4688,199.2188 402.6094,199.4688 402.8281,199.6406 C402.9844,199.75 403.1719,199.7813 403.5938,199.7813 L403.8438,199.7813 L403.8438,206.2969 L403.5938,206.2969 C403.1875,206.2969 403.0313,206.3125 402.875,206.4219 C402.625,206.5938 402.4688,206.8594 402.4688,207.1563 C402.4688,207.4219 402.6094,207.6719 402.8281,207.8281 C402.9688,207.9531 403.2031,208 403.5938,208 L411.5938,208 L411.5938,205.4219 C411.5938,204.9844 411.5625,204.8438 411.4844,204.6875 C411.3125,204.4375 411.0313,204.2813 410.75,204.2813 C410.4844,204.2813 410.2188,204.3906 410.0469,204.6406 C409.9375,204.7969 409.9063,204.9375 409.9063,205.4219 L409.9063,206.2969 L405.5469,206.2969 L405.5469,203.875 Z " fill="#FFFFFF"/><text fill="#FFFFFF" font-family="sans-serif" font-size="14" lengthAdjust="spacing" textLength="37" x="427.25" y="207.8467">users</text><line style="stroke:#E7E7E7;stroke-width:0.5;" x1="361.5" x2="497.5" y1="219" y2="219"/><ellipse cx="371.5" cy="232.6484" fill="#000000" rx="3" ry="3" style="stroke:#000000;stroke-width:1.0;"/><text fill="#FFFFFF" font-family="sans-serif" font-size="14" lengthAdjust="spacing" textLength="86" x="380.5" y="235.9951">id &lt;unique&gt;</text><line style="stroke:#E7E7E7;stroke-width:1.0;" x1="361.5" x2="497.5" y1="243.2969" y2="243.2969"/><ellipse cx="371.5" cy="256.9453" fill="#000000" rx="3" ry="3" style="stroke:#000000;stroke-width:1.0;"/><text fill="#FFFFFF" font-family="sans-serif" font-size="14" lengthAdjust="spacing" textLength="112" x="380.5" y="260.292">email &lt;unique&gt;</text><text fill="#FFFFFF" font-family="sans-serif" font-size="14" lengthAdjust="spacing" textLength="40" x="380.5" y="276.5889">name</text><text fill="#FFFFFF" font-family="sans-serif" font-size="14" lengthAdjust="spacing" textLength="55" x="380.5" y="292.8857">country</text></g><!--MD5=[82a4b40e48eff388ebc8012d025d9a21]
class races--><g id="elem_races"><rect codeLine="25" fill="#303030" height="96.8906" id="races" rx="2.5" ry="2.5" style="stroke:#E7E7E7;stroke-width:0.5;" width="112" x="197.5" y="195"/><ellipse cx="231.4" cy="211" fill="#2E5233" rx="11" ry="11" style="stroke:#E7E7E7;stroke-width:1.0;"/><path d="M230.1969,211.875 L231.65,211.875 L231.65,211.9844 C231.65,212.3906 231.6813,212.5469 231.7594,212.7031 C231.9156,212.9531 232.1969,213.1094 232.4938,213.1094 C232.7438,213.1094 233.0094,212.9688 233.1656,212.75 C233.2906,212.5938 233.3219,212.4375 233.3219,211.9844 L233.3219,210.0625 C233.3219,209.9063 233.3219,209.8594 233.3063,209.7031 C233.2438,209.2344 232.9313,208.9219 232.4781,208.9219 C232.2281,208.9219 231.9625,209.0625 231.7906,209.2813 C231.6813,209.4531 231.65,209.6094 231.65,210.0625 L231.65,210.1875 L230.1969,210.1875 L230.1969,207.7813 L234.1813,207.7813 L234.1813,208.6406 C234.1813,209.0469 234.2125,209.2188 234.2906,209.375 C234.4625,209.625 234.7438,209.7813 235.025,209.7813 C235.2906,209.7813 235.5563,209.6406 235.7281,209.4219 C235.8375,209.25 235.8688,209.1094 235.8688,208.6406 L235.8688,206.0938 L228.2438,206.0938 C227.8063,206.0938 227.6813,206.1094 227.525,206.2031 C227.275,206.3594 227.1188,206.6563 227.1188,206.9375 C227.1188,207.2188 227.2594,207.4688 227.4781,207.6406 C227.6344,207.75 227.8219,207.7813 228.2438,207.7813 L228.4938,207.7813 L228.4938,214.2969 L228.2438,214.2969 C227.8375,214.2969 227.6813,214.3125 227.525,214.4219 C227.275,214.5938 227.1188,214.8594 227.1188,215.1563 C227.1188,215.4219 227.2594,215.6719 227.4781,215.8281 C227.6188,215.9531 227.8531,216 228.2438,216 L236.2438,216 L236.2438,213.4219 C236.2438,212.9844 236.2125,212.8438 236.1344,212.6875 C235.9625,212.4375 235.6813,212.2813 235.4,212.2813 C235.1344,212.2813 234.8688,212.3906 234.6969,212.6406 C234.5875,212.7969 234.5563,212.9375 234.5563,213.4219 L234.5563,214.2969 L230.1969,214.2969 L230.1969,211.875 Z " fill="#FFFFFF"/><text fill="#FFFFFF" font-family="sans-serif" font-size="14" lengthAdjust="spacing" textLength="38" x="249.6" y="215.8467">races</text><line style="stroke:#E7E7E7;stroke-width:0.5;" x1="198.5" x2="308.5" y1="227" y2="227"/><ellipse cx="208.5" cy="240.6484" fill="#000000" rx="3" ry="3" style="stroke:#000000;stroke-width:1.0;"/><text fill="#FFFFFF" font-family="sans-serif" font-size="14" lengthAdjust="spacing" textLength="86" x="217.5" y="243.9951">id &lt;unique&gt;</text><line style="stroke:#E7E7E7;stroke-width:1.0;" x1="198.5" x2="308.5" y1="251.2969" y2="251.2969"/><ellipse cx="208.5" cy="264.9453" fill="#000000" rx="3" ry="3" style="stroke:#000000;stroke-width:1.0;"/><text fill="#FFFFFF" font-family="sans-serif" font-size="14" lengthAdjust="spacing" textLength="33" x="217.5" y="268.292">date</text><ellipse cx="208.5" cy="281.2422" fill="#000000" rx="3" ry="3" style="stroke:#000000;stroke-width:1.0;"/><text fill="#FFFFFF" font-family="sans-serif" font-size="14" lengthAdjust="spacing" textLength="60" x="217.5" y="284.5889">plane_id</text></g><!--MD5=[ebbc7d3c53ac9c4eb8a3b9a2952a2c88]
class tickets--><g id="elem_tickets"><rect codeLine="32" fill="#303030" height="113.1875" id="tickets" rx="2.5" ry="2.5" style="stroke:#E7E7E7;stroke-width:0.5;" width="112" x="285.5" y="7"/><ellipse cx="313.55" cy="23" fill="#2E5233" rx="11" ry="11" style="stroke:#E7E7E7;stroke-width:1.0;"/><path d="M312.3469,23.875 L313.8,23.875 L313.8,23.9844 C313.8,24.3906 313.8313,24.5469 313.9094,24.7031 C314.0656,24.9531 314.3469,25.1094 314.6438,25.1094 C314.8938,25.1094 315.1594,24.9688 315.3156,24.75 C315.4406,24.5938 315.4719,24.4375 315.4719,23.9844 L315.4719,22.0625 C315.4719,21.9063 315.4719,21.8594 315.4563,21.7031 C315.3938,21.2344 315.0813,20.9219 314.6281,20.9219 C314.3781,20.9219 314.1125,21.0625 313.9406,21.2813 C313.8313,21.4531 313.8,21.6094 313.8,22.0625 L313.8,22.1875 L312.3469,22.1875 L312.3469,19.7813 L316.3313,19.7813 L316.3313,20.6406 C316.3313,21.0469 316.3625,21.2188 316.4406,21.375 C316.6125,21.625 316.8938,21.7813 317.175,21.7813 C317.4406,21.7813 317.7063,21.6406 317.8781,21.4219 C317.9875,21.25 318.0188,21.1094 318.0188,20.6406 L318.0188,18.0938 L310.3938,18.0938 C309.9563,18.0938 309.8313,18.1094 309.675,18.2031 C309.425,18.3594 309.2688,18.6563 309.2688,18.9375 C309.2688,19.2188 309.4094,19.4688 309.6281,19.6406 C309.7844,19.75 309.9719,19.7813 310.3938,19.7813 L310.6438,19.7813 L310.6438,26.2969 L310.3938,26.2969 C309.9875,26.2969 309.8313,26.3125 309.675,26.4219 C309.425,26.5938 309.2688,26.8594 309.2688,27.1563 C309.2688,27.4219 309.4094,27.6719 309.6281,27.8281 C309.7688,27.9531 310.0031,28 310.3938,28 L318.3938,28 L318.3938,25.4219 C318.3938,24.9844 318.3625,24.8438 318.2844,24.6875 C318.1125,24.4375 317.8313,24.2813 317.55,24.2813 C317.2844,24.2813 317.0188,24.3906 316.8469,24.6406 C316.7375,24.7969 316.7063,24.9375 316.7063,25.4219 L316.7063,26.2969 L312.3469,26.2969 L312.3469,23.875 Z " fill="#FFFFFF"/><text fill="#FFFFFF" font-family="sans-serif" font-size="14" lengthAdjust="spacing" textLength="51" x="330.45" y="27.8467">tickets</text><line style="stroke:#E7E7E7;stroke-width:0.5;" x1="286.5" x2="396.5" y1="39" y2="39"/><ellipse cx="296.5" cy="52.6484" fill="#000000" rx="3" ry="3" style="stroke:#000000;stroke-width:1.0;"/><text fill="#FFFFFF" font-family="sans-serif" font-size="14" lengthAdjust="spacing" textLength="86" x="305.5" y="55.9951">id &lt;unique&gt;</text><line style="stroke:#E7E7E7;stroke-width:1.0;" x1="286.5" x2="396.5" y1="63.2969" y2="63.2969"/><ellipse cx="296.5" cy="76.9453" fill="#000000" rx="3" ry="3" style="stroke:#000000;stroke-width:1.0;"/><text fill="#FFFFFF" font-family="sans-serif" font-size="14" lengthAdjust="spacing" textLength="50" x="305.5" y="80.292">user_id</text><ellipse cx="296.5" cy="93.2422" fill="#000000" rx="3" ry="3" style="stroke:#000000;stroke-width:1.0;"/><text fill="#FFFFFF" font-family="sans-serif" font-size="14" lengthAdjust="spacing" textLength="51" x="305.5" y="96.5889">race_id</text><text fill="#FFFFFF" font-family="sans-serif" font-size="14" lengthAdjust="spacing" textLength="31" x="305.5" y="112.8857">seat</text></g><!--MD5=[04417c627b08399560a8f9f3534a18cd]
link planes to companies--><g id="link_planes_companies"><path codeLine="40" d="M62.5956,77.16 C53.3002,84.21 63.6061,107.005 71.5,123 C90.3914,161.28 127.609,144.72 146.5,183 C154.394,198.995 164.7,221.7905 155.404,228.8396 " fill="none" id="planes-companies" style="stroke:#E7E7E7;stroke-width:1.0;"/><line style="stroke:#E7E7E7;stroke-width:1.0;" x1="62.7831" x2="68.9181" y1="77.1092" y2="69.2123"/><line style="stroke:#E7E7E7;stroke-width:1.0;" x1="62.7831" x2="72.0819" y1="77.1092" y2="80.7877"/><line style="stroke:#E7E7E7;stroke-width:1.0;" x1="62.7831" x2="70.5" y1="77.1092" y2="75"/><line style="stroke:#E7E7E7;stroke-width:1.0;" x1="59.7992" x2="61.9084" y1="73.7781" y2="81.495"/><line style="stroke:#E7E7E7;stroke-width:1.0;" x1="158.111" x2="147.5" y1="228.1007" y2="231"/><ellipse cx="158.111" cy="228.1007" fill="none" rx="4" ry="4" style="stroke:#E7E7E7;stroke-width:1.0;"/><line style="stroke:#E7E7E7;stroke-width:1.0;" x1="152.4129" x2="150.3043" y1="233.8043" y2="226.0871"/></g><!--MD5=[b3c196466f518bfa9e26783877ca5550]
link planes to races--><g id="link_planes_races"><path codeLine="41" d="M192.439,53.561 C222.465,76.946 158.508,253.1588 188.587,276.459 " fill="none" id="planes-races" style="stroke:#E7E7E7;stroke-width:1.0;"/><line style="stroke:#E7E7E7;stroke-width:1.0;" x1="194.969" x2="184.5" y1="54.3764" y2="51"/><ellipse cx="194.969" cy="54.3764" fill="none" rx="4" ry="4" style="stroke:#E7E7E7;stroke-width:1.0;"/><line style="stroke:#E7E7E7;stroke-width:1.0;" x1="187.0791" x2="189.5347" y1="56.0347" y2="48.4209"/><line style="stroke:#E7E7E7;stroke-width:1.0;" x1="188.883" x2="198.3343" y1="276.5542" y2="273.2873"/><line style="stroke:#E7E7E7;stroke-width:1.0;" x1="188.883" x2="194.6657" y1="276.5542" y2="284.7127"/><line style="stroke:#E7E7E7;stroke-width:1.0;" x1="188.883" x2="196.5" y1="276.5542" y2="279"/><line style="stroke:#E7E7E7;stroke-width:1.0;" x1="188.2017" x2="185.7559" y1="272.1343" y2="279.7513"/></g><!--MD5=[5040353467490999f3d4f48730bc0eb0]
link tickets to users--><g id="link_tickets_users"><path codeLine="42" d="M406.643,75.916 C451.907,88.102 306.052,217.944 351.38,230.09 " fill="none" id="tickets-users" style="stroke:#E7E7E7;stroke-width:1.0;"/><line style="stroke:#E7E7E7;stroke-width:1.0;" x1="406.4499" x2="397.8293" y1="75.8943" y2="80.9624"/><line style="stroke:#E7E7E7;stroke-width:1.0;" x1="406.4499" x2="399.1707" y1="75.8943" y2="69.0376"/><line style="stroke:#E7E7E7;stroke-width:1.0;" x1="406.4499" x2="398.5" y1="75.8943" y2="75"/><line style="stroke:#E7E7E7;stroke-width:1.0;" x1="407.9902" x2="408.8845" y1="80.0928" y2="72.1429"/><line style="stroke:#E7E7E7;stroke-width:1.0;" x1="348.5685" x2="359.5" y1="229.7743" y2="231"/><ellipse cx="348.5685" cy="229.7743" fill="none" rx="4" ry="4" style="stroke:#E7E7E7;stroke-width:1.0;"/><line style="stroke:#E7E7E7;stroke-width:1.0;" x1="355.9706" x2="355.0792" y1="226.5792" y2="234.5294"/></g><!--MD5=[273d6784590103dd006626eb71a22d6c]
link tickets to races--><g id="link_tickets_races"><path codeLine="43" d="M276.554,91.945 C234.431,103.91 360.216,225.6591 318.658,237.9934 " fill="none" id="tickets-races" style="stroke:#E7E7E7;stroke-width:1.0;"/><line style="stroke:#E7E7E7;stroke-width:1.0;" x1="276.5561" x2="283.7906" y1="91.9458" y2="85.0421"/><line style="stroke:#E7E7E7;stroke-width:1.0;" x1="276.5561" x2="285.2094" y1="91.9458" y2="96.9579"/><line style="stroke:#E7E7E7;stroke-width:1.0;" x1="276.5561" x2="284.5" y1="91.9458" y2="91"/><line style="stroke:#E7E7E7;stroke-width:1.0;" x1="274.0972" x2="275.0431" y1="88.2104" y2="96.1542"/><line style="stroke:#E7E7E7;stroke-width:1.0;" x1="321.4172" x2="310.5" y1="237.6525" y2="239"/><ellipse cx="321.4172" cy="237.6525" fill="none" rx="4" ry="4" style="stroke:#E7E7E7;stroke-width:1.0;"/><line style="stroke:#E7E7E7;stroke-width:1.0;" x1="314.9599" x2="313.9799" y1="242.4799" y2="234.5401"/></g><!--MD5=[37cefcaae6f40d04d05caf605e6d1170]
@startuml
entity companies {
    * id <unique>
    - -
    * name <unique>
    * site_link
    country
}

entity planes {
    * id <unique>
    - -
    * company_id
    * type
    * size
}

entity users {
    * id <unique>
    - -
    * email <unique>
    name
    country
}

entity races {
    * id <unique>
    - -
    * date
    * plane_id
}

entity tickets {
    * id <unique>
    - -
    *user_id
    *race_id
    seat
}

planes::company_id }|- -o| companies::id
planes::id |o- -|{ races::plane_id
tickets::user_id }|- -o| users::id
tickets::race_id }|- -o| races::id
@enduml

PlantUML version 1.2022.14beta1(Unknown compile time)
(GPL source distribution)
Java Runtime: Java(TM) SE Runtime Environment
JVM: Java HotSpot(TM) 64-Bit Server VM
Default Encoding: UTF-8
Language: en
Country: US
--></g></svg>