<?xml version="1.0" encoding="UTF-8" standalone="no"?><svg xmlns="http://www.w3.org/2000/svg" xmlns:xlink="http://www.w3.org/1999/xlink" contentStyleType="text/css" height="583px" preserveAspectRatio="none" style="width:321px;height:583px;background:#FFFFFF;" version="1.1" viewBox="0 0 321 583" width="321px" zoomAndPan="magnify"><defs/><g><!--MD5=[10fc2cf69b96b22d95019ea62e5a7e69]
class workers--><g id="elem_workers"><rect codeLine="1" fill="#F1F1F1" height="145.7813" id="workers" rx="2.5" ry="2.5" style="stroke:#181818;stroke-width:0.5;" width="110" x="64.5404" y="104"/><ellipse cx="88.9904" cy="120" fill="#ADD1B2" rx="11" ry="11" style="stroke:#181818;stroke-width:1.0;"/><path d="M87.7873,120.875 L89.2404,120.875 L89.2404,120.9844 C89.2404,121.3906 89.2716,121.5469 89.3498,121.7031 C89.506,121.9531 89.7873,122.1094 90.0841,122.1094 C90.3341,122.1094 90.5998,121.9688 90.756,121.75 C90.881,121.5938 90.9123,121.4375 90.9123,120.9844 L90.9123,119.0625 C90.9123,118.9063 90.9123,118.8594 90.8966,118.7031 C90.8341,118.2344 90.5216,117.9219 90.0685,117.9219 C89.8185,117.9219 89.5529,118.0625 89.381,118.2813 C89.2716,118.4531 89.2404,118.6094 89.2404,119.0625 L89.2404,119.1875 L87.7873,119.1875 L87.7873,116.7813 L91.7716,116.7813 L91.7716,117.6406 C91.7716,118.0469 91.8029,118.2188 91.881,118.375 C92.0529,118.625 92.3341,118.7813 92.6154,118.7813 C92.881,118.7813 93.1466,118.6406 93.3185,118.4219 C93.4279,118.25 93.4591,118.1094 93.4591,117.6406 L93.4591,115.0938 L85.8341,115.0938 C85.3966,115.0938 85.2716,115.1094 85.1154,115.2031 C84.8654,115.3594 84.7091,115.6563 84.7091,115.9375 C84.7091,116.2188 84.8498,116.4688 85.0685,116.6406 C85.2248,116.75 85.4123,116.7813 85.8341,116.7813 L86.0841,116.7813 L86.0841,123.2969 L85.8341,123.2969 C85.4279,123.2969 85.2716,123.3125 85.1154,123.4219 C84.8654,123.5938 84.7091,123.8594 84.7091,124.1563 C84.7091,124.4219 84.8498,124.6719 85.0685,124.8281 C85.2091,124.9531 85.4435,125 85.8341,125 L93.8341,125 L93.8341,122.4219 C93.8341,121.9844 93.8029,121.8438 93.7248,121.6875 C93.5529,121.4375 93.2716,121.2813 92.9904,121.2813 C92.7248,121.2813 92.4591,121.3906 92.2873,121.6406 C92.1779,121.7969 92.1466,121.9375 92.1466,122.4219 L92.1466,123.2969 L87.7873,123.2969 L87.7873,120.875 Z " fill="#000000"/><text fill="#000000" font-family="sans-serif" font-size="14" lengthAdjust="spacing" textLength="57" x="105.0904" y="124.8467">workers</text><line style="stroke:#181818;stroke-width:0.5;" x1="65.5404" x2="173.5404" y1="136" y2="136"/><text fill="#000000" font-family="sans-serif" font-size="14" lengthAdjust="spacing" textLength="13" x="70.5404" y="152.9951">id</text><line style="stroke:#181818;stroke-width:1.0;" x1="65.5404" x2="173.5404" y1="160.2969" y2="160.2969"/><text fill="#000000" font-family="sans-serif" font-size="14" lengthAdjust="spacing" textLength="64" x="70.5404" y="177.292">passport</text><text fill="#000000" font-family="sans-serif" font-size="14" lengthAdjust="spacing" textLength="19" x="70.5404" y="193.5889">fio</text><text fill="#000000" font-family="sans-serif" font-size="14" lengthAdjust="spacing" textLength="43" x="70.5404" y="209.8857">job_id</text><text fill="#000000" font-family="sans-serif" font-size="14" lengthAdjust="spacing" textLength="94" x="70.5404" y="226.1826">supervisor_id</text><text fill="#000000" font-family="sans-serif" font-size="14" lengthAdjust="spacing" textLength="98" x="70.5404" y="242.4795">date_of_birth</text></g><!--MD5=[e60098b13e3af7bcd61c2d4124c1c1c3]
class jobs--><g id="elem_jobs"><rect codeLine="11" fill="#F1F1F1" height="80.5938" id="jobs" rx="2.5" ry="2.5" style="stroke:#181818;stroke-width:0.5;" width="62" x="13.5404" y="324"/><ellipse cx="28.5404" cy="340" fill="#ADD1B2" rx="11" ry="11" style="stroke:#181818;stroke-width:1.0;"/><path d="M27.3373,340.875 L28.7904,340.875 L28.7904,340.9844 C28.7904,341.3906 28.8216,341.5469 28.8998,341.7031 C29.056,341.9531 29.3373,342.1094 29.6341,342.1094 C29.8841,342.1094 30.1498,341.9688 30.306,341.75 C30.431,341.5938 30.4623,341.4375 30.4623,340.9844 L30.4623,339.0625 C30.4623,338.9063 30.4623,338.8594 30.4466,338.7031 C30.3841,338.2344 30.0716,337.9219 29.6185,337.9219 C29.3685,337.9219 29.1029,338.0625 28.931,338.2813 C28.8216,338.4531 28.7904,338.6094 28.7904,339.0625 L28.7904,339.1875 L27.3373,339.1875 L27.3373,336.7813 L31.3216,336.7813 L31.3216,337.6406 C31.3216,338.0469 31.3529,338.2188 31.431,338.375 C31.6029,338.625 31.8841,338.7813 32.1654,338.7813 C32.431,338.7813 32.6966,338.6406 32.8685,338.4219 C32.9779,338.25 33.0091,338.1094 33.0091,337.6406 L33.0091,335.0938 L25.3841,335.0938 C24.9466,335.0938 24.8216,335.1094 24.6654,335.2031 C24.4154,335.3594 24.2591,335.6563 24.2591,335.9375 C24.2591,336.2188 24.3998,336.4688 24.6185,336.6406 C24.7748,336.75 24.9623,336.7813 25.3841,336.7813 L25.6341,336.7813 L25.6341,343.2969 L25.3841,343.2969 C24.9779,343.2969 24.8216,343.3125 24.6654,343.4219 C24.4154,343.5938 24.2591,343.8594 24.2591,344.1563 C24.2591,344.4219 24.3998,344.6719 24.6185,344.8281 C24.7591,344.9531 24.9935,345 25.3841,345 L33.3841,345 L33.3841,342.4219 C33.3841,341.9844 33.3529,341.8438 33.2748,341.6875 C33.1029,341.4375 32.8216,341.2813 32.5404,341.2813 C32.2748,341.2813 32.0091,341.3906 31.8373,341.6406 C31.7279,341.7969 31.6966,341.9375 31.6966,342.4219 L31.6966,343.2969 L27.3373,343.2969 L27.3373,340.875 Z " fill="#000000"/><text fill="#000000" font-family="sans-serif" font-size="14" lengthAdjust="spacing" textLength="30" x="42.5404" y="344.8467">jobs</text><line style="stroke:#181818;stroke-width:0.5;" x1="14.5404" x2="74.5404" y1="356" y2="356"/><text fill="#000000" font-family="sans-serif" font-size="14" lengthAdjust="spacing" textLength="13" x="19.5404" y="372.9951">id</text><line style="stroke:#181818;stroke-width:1.0;" x1="14.5404" x2="74.5404" y1="380.2969" y2="380.2969"/><text fill="#000000" font-family="sans-serif" font-size="14" lengthAdjust="spacing" textLength="40" x="19.5404" y="397.292">name</text></g><!--MD5=[51b2feb342dfdd0690b227602b3736e9]
class shifts--><g id="elem_shifts"><rect codeLine="17" fill="#F1F1F1" height="96.8906" id="shifts" rx="2.5" ry="2.5" style="stroke:#181818;stroke-width:0.5;" width="72" x="158.5404" y="480"/><ellipse cx="173.5404" cy="496" fill="#ADD1B2" rx="11" ry="11" style="stroke:#181818;stroke-width:1.0;"/><path d="M172.3373,496.875 L173.7904,496.875 L173.7904,496.9844 C173.7904,497.3906 173.8216,497.5469 173.8998,497.7031 C174.056,497.9531 174.3373,498.1094 174.6341,498.1094 C174.8841,498.1094 175.1498,497.9688 175.306,497.75 C175.431,497.5938 175.4623,497.4375 175.4623,496.9844 L175.4623,495.0625 C175.4623,494.9063 175.4623,494.8594 175.4466,494.7031 C175.3841,494.2344 175.0716,493.9219 174.6185,493.9219 C174.3685,493.9219 174.1029,494.0625 173.931,494.2813 C173.8216,494.4531 173.7904,494.6094 173.7904,495.0625 L173.7904,495.1875 L172.3373,495.1875 L172.3373,492.7813 L176.3216,492.7813 L176.3216,493.6406 C176.3216,494.0469 176.3529,494.2188 176.431,494.375 C176.6029,494.625 176.8841,494.7813 177.1654,494.7813 C177.431,494.7813 177.6966,494.6406 177.8685,494.4219 C177.9779,494.25 178.0091,494.1094 178.0091,493.6406 L178.0091,491.0938 L170.3841,491.0938 C169.9466,491.0938 169.8216,491.1094 169.6654,491.2031 C169.4154,491.3594 169.2591,491.6563 169.2591,491.9375 C169.2591,492.2188 169.3998,492.4688 169.6185,492.6406 C169.7748,492.75 169.9623,492.7813 170.3841,492.7813 L170.6341,492.7813 L170.6341,499.2969 L170.3841,499.2969 C169.9779,499.2969 169.8216,499.3125 169.6654,499.4219 C169.4154,499.5938 169.2591,499.8594 169.2591,500.1563 C169.2591,500.4219 169.3998,500.6719 169.6185,500.8281 C169.7591,500.9531 169.9935,501 170.3841,501 L178.3841,501 L178.3841,498.4219 C178.3841,497.9844 178.3529,497.8438 178.2748,497.6875 C178.1029,497.4375 177.8216,497.2813 177.5404,497.2813 C177.2748,497.2813 177.0091,497.3906 176.8373,497.6406 C176.7279,497.7969 176.6966,497.9375 176.6966,498.4219 L176.6966,499.2969 L172.3373,499.2969 L172.3373,496.875 Z " fill="#000000"/><text fill="#000000" font-family="sans-serif" font-size="14" lengthAdjust="spacing" textLength="40" x="187.5404" y="500.8467">shifts</text><line style="stroke:#181818;stroke-width:0.5;" x1="159.5404" x2="229.5404" y1="512" y2="512"/><text fill="#000000" font-family="sans-serif" font-size="14" lengthAdjust="spacing" textLength="13" x="164.5404" y="528.9951">id</text><line style="stroke:#181818;stroke-width:1.0;" x1="159.5404" x2="229.5404" y1="536.2969" y2="536.2969"/><text fill="#000000" font-family="sans-serif" font-size="14" lengthAdjust="spacing" textLength="34" x="164.5404" y="553.292">time</text><text fill="#000000" font-family="sans-serif" font-size="14" lengthAdjust="spacing" textLength="41" x="164.5404" y="569.5889">salary</text></g><!--MD5=[0e1bfef01778b63388717a4a2e8120fc]
class workers_shifts--><g id="elem_workers_shifts"><rect codeLine="24" fill="#F1F1F1" height="96.8906" id="workers_shifts" rx="2.5" ry="2.5" style="stroke:#181818;stroke-width:0.5;" width="136" x="126.5404" y="316"/><ellipse cx="141.5404" cy="332" fill="#ADD1B2" rx="11" ry="11" style="stroke:#181818;stroke-width:1.0;"/><path d="M140.3373,332.875 L141.7904,332.875 L141.7904,332.9844 C141.7904,333.3906 141.8216,333.5469 141.8998,333.7031 C142.056,333.9531 142.3373,334.1094 142.6341,334.1094 C142.8841,334.1094 143.1498,333.9688 143.306,333.75 C143.431,333.5938 143.4623,333.4375 143.4623,332.9844 L143.4623,331.0625 C143.4623,330.9063 143.4623,330.8594 143.4466,330.7031 C143.3841,330.2344 143.0716,329.9219 142.6185,329.9219 C142.3685,329.9219 142.1029,330.0625 141.931,330.2813 C141.8216,330.4531 141.7904,330.6094 141.7904,331.0625 L141.7904,331.1875 L140.3373,331.1875 L140.3373,328.7813 L144.3216,328.7813 L144.3216,329.6406 C144.3216,330.0469 144.3529,330.2188 144.431,330.375 C144.6029,330.625 144.8841,330.7813 145.1654,330.7813 C145.431,330.7813 145.6966,330.6406 145.8685,330.4219 C145.9779,330.25 146.0091,330.1094 146.0091,329.6406 L146.0091,327.0938 L138.3841,327.0938 C137.9466,327.0938 137.8216,327.1094 137.6654,327.2031 C137.4154,327.3594 137.2591,327.6563 137.2591,327.9375 C137.2591,328.2188 137.3998,328.4688 137.6185,328.6406 C137.7748,328.75 137.9623,328.7813 138.3841,328.7813 L138.6341,328.7813 L138.6341,335.2969 L138.3841,335.2969 C137.9779,335.2969 137.8216,335.3125 137.6654,335.4219 C137.4154,335.5938 137.2591,335.8594 137.2591,336.1563 C137.2591,336.4219 137.3998,336.6719 137.6185,336.8281 C137.7591,336.9531 137.9935,337 138.3841,337 L146.3841,337 L146.3841,334.4219 C146.3841,333.9844 146.3529,333.8438 146.2748,333.6875 C146.1029,333.4375 145.8216,333.2813 145.5404,333.2813 C145.2748,333.2813 145.0091,333.3906 144.8373,333.6406 C144.7279,333.7969 144.6966,333.9375 144.6966,334.4219 L144.6966,335.2969 L140.3373,335.2969 L140.3373,332.875 Z " fill="#000000"/><text fill="#000000" font-family="sans-serif" font-size="14" lengthAdjust="spacing" textLength="104" x="155.5404" y="336.8467">workers_shifts</text><line style="stroke:#181818;stroke-width:0.5;" x1="127.5404" x2="261.5404" y1="348" y2="348"/><text fill="#000000" font-family="sans-serif" font-size="14" lengthAdjust="spacing" textLength="13" x="132.5404" y="364.9951">id</text><line style="stroke:#181818;stroke-width:1.0;" x1="127.5404" x2="261.5404" y1="372.2969" y2="372.2969"/><text fill="#000000" font-family="sans-serif" font-size="14" lengthAdjust="spacing" textLength="70" x="132.5404" y="389.292">worker_id</text><text fill="#000000" font-family="sans-serif" font-size="14" lengthAdjust="spacing" textLength="53" x="132.5404" y="405.5889">shift_id</text></g><!--MD5=[82564ce2e281ec46841c9baa70d672a0]
link workers to jobs--><g id="link_workers_jobs"><path codeLine="31" d="M55.3652,204.882 C6,217.211 134.0754,354.782 84.7193,367.117 " fill="none" id="workers-jobs" style="stroke:#181818;stroke-width:1.0;"/><line style="stroke:#181818;stroke-width:1.0;" x1="87.4768" x2="76.5404" y1="366.819" y2="368"/><ellipse cx="87.4768" cy="366.819" fill="none" rx="4" ry="4" style="stroke:#181818;stroke-width:1.0;"/><line style="stroke:#181818;stroke-width:1.0;" x1="80.9467" x2="80.0878" y1="371.5474" y2="363.5937"/><line style="stroke:#181818;stroke-width:1.0;" x1="55.5866" x2="62.8964" y1="204.8587" y2="198.0347"/><line style="stroke:#181818;stroke-width:1.0;" x1="55.5866" x2="64.1844" y1="204.8587" y2="209.9653"/><line style="stroke:#181818;stroke-width:1.0;" x1="55.5866" x2="63.5404" y1="204.8587" y2="204"/><line style="stroke:#181818;stroke-width:1.0;" x1="53.1688" x2="54.0275" y1="201.0964" y2="209.0502"/></g><!--MD5=[d171bf1dadf42660849e7c89b9b99a96]
link workers to workers_shifts--><g id="link_workers_workers_shifts"><path codeLine="32" d="M183.8234,148.227 C297.4594,154.776 130.5994,300.682 126.5404,312 C116.8344,339.065 97.9292,375.615 117.3984,382.76 " fill="none" id="workers-workers_shifts" style="stroke:#181818;stroke-width:1.0;"/><line style="stroke:#181818;stroke-width:1.0;" x1="117.6315" x2="126.4436" y1="382.7957" y2="378.0684"/><line style="stroke:#181818;stroke-width:1.0;" x1="117.6315" x2="124.6371" y1="382.7957" y2="389.9316"/><line style="stroke:#181818;stroke-width:1.0;" x1="117.6315" x2="125.5404" y1="382.7957" y2="384"/><line style="stroke:#181818;stroke-width:1.0;" x1="116.2565" x2="115.0522" y1="378.5402" y2="386.449"/><line style="stroke:#181818;stroke-width:1.0;" x1="186.5362" x2="175.5404" y1="148.3025" y2="148"/><ellipse cx="186.5362" cy="148.3025" fill="none" rx="4" ry="4" style="stroke:#181818;stroke-width:1.0;"/><line style="stroke:#181818;stroke-width:1.0;" x1="179.4289" x2="179.6489" y1="152.1085" y2="144.1115"/></g><!--MD5=[b4c3d10aec9c58e2a1280a3421447ca5]
link workers_shifts to shifts--><g id="link_workers_shifts_shifts"><path codeLine="33" d="M271.5314,400.927 C314.8264,411.698 288.5744,512.9117 239.5904,523.1634 " fill="none" id="workers_shifts-shifts" style="stroke:#181818;stroke-width:1.0;"/><line style="stroke:#181818;stroke-width:1.0;" x1="242.4814" x2="231.5404" y1="522.8627" y2="524"/><ellipse cx="242.4814" cy="522.8627" fill="none" rx="4" ry="4" style="stroke:#181818;stroke-width:1.0;"/><line style="stroke:#181818;stroke-width:1.0;" x1="235.9325" x2="235.1054" y1="527.565" y2="519.6079"/><line style="stroke:#181818;stroke-width:1.0;" x1="271.4871" x2="262.8493" y1="400.9214" y2="405.9601"/><line style="stroke:#181818;stroke-width:1.0;" x1="271.4871" x2="264.2314" y1="400.9214" y2="394.0399"/><line style="stroke:#181818;stroke-width:1.0;" x1="271.4871" x2="263.5404" y1="400.9214" y2="400"/><line style="stroke:#181818;stroke-width:1.0;" x1="273.0131" x2="273.9345" y1="405.1251" y2="397.1783"/></g><!--MD5=[bbb90f4ce2b2bcc27723edafc32b575c]
link workers to workers--><g id="link_workers_workers"><path codeLine="34" d="M123.5844,203.722 C136.9164,137.984 135.5684,6 119.5404,6 C103.6426,6 102.1871,76.424 115.1744,131.803 " fill="none" id="workers-workers" style="stroke:#181818;stroke-width:1.0;"/><line style="stroke:#181818;stroke-width:1.0;" x1="114.5172" x2="117.1944" y1="129.1847" y2="139.854"/><ellipse cx="114.5172" cy="129.1847" fill="none" rx="4" ry="4" style="stroke:#181818;stroke-width:1.0;"/><line style="stroke:#181818;stroke-width:1.0;" x1="120.1006" x2="112.3411" y1="135.0008" y2="136.9478"/><line style="stroke:#181818;stroke-width:1.0;" x1="123.5296" x2="127.6492" y1="203.9679" y2="213.0799"/><line style="stroke:#181818;stroke-width:1.0;" x1="123.5296" x2="115.9356" y1="203.9679" y2="210.4741"/><line style="stroke:#181818;stroke-width:1.0;" x1="123.5296" x2="121.7924" y1="203.9679" y2="211.777"/><line style="stroke:#181818;stroke-width:1.0;" x1="127.8685" x2="120.0594" y1="202.8843" y2="201.147"/></g><!--MD5=[e77200d0263fc6b21a282def9ebc3c3c]
@startuml
entity workers {
id
- -
passport
fio
job_id
supervisor_id
date_of_birth
}

entity jobs {
id
- -
name 
}

entity shifts {
id
- -
time
salary
}

entity workers_shifts {
id
- -
worker_id
shift_id
}

workers::job_id }|- -o| jobs::id
workers::id |o- -|{ workers_shifts::worker_id
workers_shifts::shift_id }|- -o| shifts::id
workers::supervisor_id }|- -o| workers::id
@enduml

PlantUML version 1.2022.10beta1(Unknown compile time)
(GPL source distribution)
Java Runtime: Java(TM) SE Runtime Environment
JVM: Java HotSpot(TM) 64-Bit Server VM
Default Encoding: UTF-8
Language: en
Country: US
--></g></svg>