<?xml version="1.0" encoding="UTF-8" standalone="no"?><svg xmlns="http://www.w3.org/2000/svg" xmlns:xlink="http://www.w3.org/1999/xlink" contentStyleType="text/css" height="683px" preserveAspectRatio="none" style="width:660px;height:683px;background:#000000;" version="1.1" viewBox="0 0 660 683" width="660px" zoomAndPan="magnify"><defs/><g><!--MD5=[7780b3b2cc04b4f4e061daf3c2215f83]
class songs--><g id="elem_songs"><rect codeLine="1" fill="#303030" height="162.0781" id="songs" rx="2.5" ry="2.5" style="stroke:#E7E7E7;stroke-width:0.5;" width="147" x="167.5009" y="171"/><ellipse cx="216.2509" cy="187" fill="#2E5233" rx="11" ry="11" style="stroke:#E7E7E7;stroke-width:1.0;"/><path d="M215.0478,187.875 L216.5009,187.875 L216.5009,187.9844 C216.5009,188.3906 216.5322,188.5469 216.6103,188.7031 C216.7665,188.9531 217.0478,189.1094 217.3447,189.1094 C217.5947,189.1094 217.8603,188.9688 218.0165,188.75 C218.1415,188.5938 218.1728,188.4375 218.1728,187.9844 L218.1728,186.0625 C218.1728,185.9063 218.1728,185.8594 218.1572,185.7031 C218.0947,185.2344 217.7822,184.9219 217.329,184.9219 C217.079,184.9219 216.8134,185.0625 216.6415,185.2813 C216.5322,185.4531 216.5009,185.6094 216.5009,186.0625 L216.5009,186.1875 L215.0478,186.1875 L215.0478,183.7813 L219.0322,183.7813 L219.0322,184.6406 C219.0322,185.0469 219.0634,185.2188 219.1415,185.375 C219.3134,185.625 219.5947,185.7813 219.8759,185.7813 C220.1415,185.7813 220.4072,185.6406 220.579,185.4219 C220.6884,185.25 220.7197,185.1094 220.7197,184.6406 L220.7197,182.0938 L213.0947,182.0938 C212.6572,182.0938 212.5322,182.1094 212.3759,182.2031 C212.1259,182.3594 211.9697,182.6563 211.9697,182.9375 C211.9697,183.2188 212.1103,183.4688 212.329,183.6406 C212.4853,183.75 212.6728,183.7813 213.0947,183.7813 L213.3447,183.7813 L213.3447,190.2969 L213.0947,190.2969 C212.6884,190.2969 212.5322,190.3125 212.3759,190.4219 C212.1259,190.5938 211.9697,190.8594 211.9697,191.1563 C211.9697,191.4219 212.1103,191.6719 212.329,191.8281 C212.4697,191.9531 212.704,192 213.0947,192 L221.0947,192 L221.0947,189.4219 C221.0947,188.9844 221.0634,188.8438 220.9853,188.6875 C220.8134,188.4375 220.5322,188.2813 220.2509,188.2813 C219.9853,188.2813 219.7197,188.3906 219.5478,188.6406 C219.4384,188.7969 219.4072,188.9375 219.4072,189.4219 L219.4072,190.2969 L215.0478,190.2969 L215.0478,187.875 Z " fill="#FFFFFF"/><text fill="#FFFFFF" font-family="sans-serif" font-size="14" lengthAdjust="spacing" textLength="41" x="236.7509" y="191.8467">songs</text><line style="stroke:#E7E7E7;stroke-width:0.5;" x1="168.5009" x2="313.5009" y1="203" y2="203"/><ellipse cx="178.5009" cy="216.6484" fill="#000000" rx="3" ry="3" style="stroke:#000000;stroke-width:1.0;"/><text fill="#FFFFFF" font-family="sans-serif" font-size="14" lengthAdjust="spacing" textLength="86" x="187.5009" y="219.9951">id &lt;unique&gt;</text><line style="stroke:#E7E7E7;stroke-width:1.0;" x1="168.5009" x2="313.5009" y1="227.2969" y2="227.2969"/><ellipse cx="178.5009" cy="240.9453" fill="#000000" rx="3" ry="3" style="stroke:#000000;stroke-width:1.0;"/><text fill="#FFFFFF" font-family="sans-serif" font-size="14" lengthAdjust="spacing" textLength="40" x="187.5009" y="244.292">name</text><ellipse cx="178.5009" cy="257.2422" fill="#000000" rx="3" ry="3" style="stroke:#000000;stroke-width:1.0;"/><text fill="#FFFFFF" font-family="sans-serif" font-size="14" lengthAdjust="spacing" textLength="33" x="187.5009" y="260.5889">likes</text><ellipse cx="178.5009" cy="273.5391" fill="#000000" rx="3" ry="3" style="stroke:#000000;stroke-width:1.0;"/><text fill="#FFFFFF" font-family="sans-serif" font-size="14" lengthAdjust="spacing" textLength="47" x="187.5009" y="276.8857">listens</text><text fill="#FFFFFF" font-family="sans-serif" font-size="14" lengthAdjust="spacing" textLength="37" x="187.5009" y="293.1826">lyrics</text><ellipse cx="178.5009" cy="306.1328" fill="#000000" rx="3" ry="3" style="stroke:#000000;stroke-width:1.0;"/><text fill="#FFFFFF" font-family="sans-serif" font-size="14" lengthAdjust="spacing" textLength="121" x="187.5009" y="309.4795">file_uri &lt;unique&gt;</text><ellipse cx="178.5009" cy="322.4297" fill="#000000" rx="3" ry="3" style="stroke:#000000;stroke-width:1.0;"/><text fill="#FFFFFF" font-family="sans-serif" font-size="14" lengthAdjust="spacing" textLength="67" x="187.5009" y="325.7764">author_id</text></g><!--MD5=[650f26d413e2bff8eebd52267adfe1f1]
class songs_genres--><g id="elem_songs_genres"><rect codeLine="12" fill="#303030" height="96.8906" id="songs_genres" rx="2.5" ry="2.5" style="stroke:#E7E7E7;stroke-width:0.5;" width="129" x="37.5012" y="408"/><ellipse cx="52.5012" cy="424" fill="#2E5233" rx="11" ry="11" style="stroke:#E7E7E7;stroke-width:1.0;"/><path d="M51.2981,424.875 L52.7512,424.875 L52.7512,424.9844 C52.7512,425.3906 52.7825,425.5469 52.8606,425.7031 C53.0168,425.9531 53.2981,426.1094 53.595,426.1094 C53.845,426.1094 54.1106,425.9688 54.2668,425.75 C54.3918,425.5938 54.4231,425.4375 54.4231,424.9844 L54.4231,423.0625 C54.4231,422.9063 54.4231,422.8594 54.4075,422.7031 C54.345,422.2344 54.0325,421.9219 53.5793,421.9219 C53.3293,421.9219 53.0637,422.0625 52.8918,422.2813 C52.7825,422.4531 52.7512,422.6094 52.7512,423.0625 L52.7512,423.1875 L51.2981,423.1875 L51.2981,420.7813 L55.2825,420.7813 L55.2825,421.6406 C55.2825,422.0469 55.3137,422.2188 55.3918,422.375 C55.5637,422.625 55.845,422.7813 56.1262,422.7813 C56.3918,422.7813 56.6575,422.6406 56.8293,422.4219 C56.9387,422.25 56.97,422.1094 56.97,421.6406 L56.97,419.0938 L49.345,419.0938 C48.9075,419.0938 48.7825,419.1094 48.6262,419.2031 C48.3762,419.3594 48.22,419.6563 48.22,419.9375 C48.22,420.2188 48.3606,420.4688 48.5793,420.6406 C48.7356,420.75 48.9231,420.7813 49.345,420.7813 L49.595,420.7813 L49.595,427.2969 L49.345,427.2969 C48.9387,427.2969 48.7825,427.3125 48.6262,427.4219 C48.3762,427.5938 48.22,427.8594 48.22,428.1563 C48.22,428.4219 48.3606,428.6719 48.5793,428.8281 C48.72,428.9531 48.9543,429 49.345,429 L57.345,429 L57.345,426.4219 C57.345,425.9844 57.3137,425.8438 57.2356,425.6875 C57.0637,425.4375 56.7825,425.2813 56.5012,425.2813 C56.2356,425.2813 55.97,425.3906 55.7981,425.6406 C55.6887,425.7969 55.6575,425.9375 55.6575,426.4219 L55.6575,427.2969 L51.2981,427.2969 L51.2981,424.875 Z " fill="#FFFFFF"/><text fill="#FFFFFF" font-family="sans-serif" font-size="14" lengthAdjust="spacing" textLength="97" x="66.5012" y="428.8467">songs_genres</text><line style="stroke:#E7E7E7;stroke-width:0.5;" x1="38.5012" x2="165.5012" y1="440" y2="440"/><ellipse cx="48.5012" cy="453.6484" fill="#000000" rx="3" ry="3" style="stroke:#000000;stroke-width:1.0;"/><text fill="#FFFFFF" font-family="sans-serif" font-size="14" lengthAdjust="spacing" textLength="86" x="57.5012" y="456.9951">id &lt;unique&gt;</text><line style="stroke:#E7E7E7;stroke-width:1.0;" x1="38.5012" x2="165.5012" y1="464.2969" y2="464.2969"/><ellipse cx="48.5012" cy="477.9453" fill="#000000" rx="3" ry="3" style="stroke:#000000;stroke-width:1.0;"/><text fill="#FFFFFF" font-family="sans-serif" font-size="14" lengthAdjust="spacing" textLength="54" x="57.5012" y="481.292">song_id</text><ellipse cx="48.5012" cy="494.2422" fill="#000000" rx="3" ry="3" style="stroke:#000000;stroke-width:1.0;"/><text fill="#FFFFFF" font-family="sans-serif" font-size="14" lengthAdjust="spacing" textLength="62" x="57.5012" y="497.5889">genre_id</text></g><!--MD5=[bb44e96b11e216c58f7b95ca85ed017e]
class genres--><g id="elem_genres"><rect codeLine="19" fill="#303030" height="96.8906" id="genres" rx="2.5" ry="2.5" style="stroke:#E7E7E7;stroke-width:0.5;" width="139" x="32.5012" y="580"/><ellipse cx="73.6012" cy="596" fill="#2E5233" rx="11" ry="11" style="stroke:#E7E7E7;stroke-width:1.0;"/><path d="M72.3981,596.875 L73.8512,596.875 L73.8512,596.9844 C73.8512,597.3906 73.8825,597.5469 73.9606,597.7031 C74.1168,597.9531 74.3981,598.1094 74.695,598.1094 C74.945,598.1094 75.2106,597.9688 75.3668,597.75 C75.4918,597.5938 75.5231,597.4375 75.5231,596.9844 L75.5231,595.0625 C75.5231,594.9063 75.5231,594.8594 75.5075,594.7031 C75.445,594.2344 75.1325,593.9219 74.6793,593.9219 C74.4293,593.9219 74.1637,594.0625 73.9918,594.2813 C73.8825,594.4531 73.8512,594.6094 73.8512,595.0625 L73.8512,595.1875 L72.3981,595.1875 L72.3981,592.7813 L76.3825,592.7813 L76.3825,593.6406 C76.3825,594.0469 76.4137,594.2188 76.4918,594.375 C76.6637,594.625 76.945,594.7813 77.2262,594.7813 C77.4918,594.7813 77.7575,594.6406 77.9293,594.4219 C78.0387,594.25 78.07,594.1094 78.07,593.6406 L78.07,591.0938 L70.445,591.0938 C70.0075,591.0938 69.8825,591.1094 69.7262,591.2031 C69.4762,591.3594 69.32,591.6563 69.32,591.9375 C69.32,592.2188 69.4606,592.4688 69.6793,592.6406 C69.8356,592.75 70.0231,592.7813 70.445,592.7813 L70.695,592.7813 L70.695,599.2969 L70.445,599.2969 C70.0387,599.2969 69.8825,599.3125 69.7262,599.4219 C69.4762,599.5938 69.32,599.8594 69.32,600.1563 C69.32,600.4219 69.4606,600.6719 69.6793,600.8281 C69.82,600.9531 70.0543,601 70.445,601 L78.445,601 L78.445,598.4219 C78.445,597.9844 78.4137,597.8438 78.3356,597.6875 C78.1637,597.4375 77.8825,597.2813 77.6012,597.2813 C77.3356,597.2813 77.07,597.3906 76.8981,597.6406 C76.7887,597.7969 76.7575,597.9375 76.7575,598.4219 L76.7575,599.2969 L72.3981,599.2969 L72.3981,596.875 Z " fill="#FFFFFF"/><text fill="#FFFFFF" font-family="sans-serif" font-size="14" lengthAdjust="spacing" textLength="49" x="93.4012" y="600.8467">genres</text><line style="stroke:#E7E7E7;stroke-width:0.5;" x1="33.5012" x2="170.5012" y1="612" y2="612"/><ellipse cx="43.5012" cy="625.6484" fill="#000000" rx="3" ry="3" style="stroke:#000000;stroke-width:1.0;"/><text fill="#FFFFFF" font-family="sans-serif" font-size="14" lengthAdjust="spacing" textLength="86" x="52.5012" y="628.9951">id &lt;unique&gt;</text><line style="stroke:#E7E7E7;stroke-width:1.0;" x1="33.5012" x2="170.5012" y1="636.2969" y2="636.2969"/><ellipse cx="43.5012" cy="649.9453" fill="#000000" rx="3" ry="3" style="stroke:#000000;stroke-width:1.0;"/><text fill="#FFFFFF" font-family="sans-serif" font-size="14" lengthAdjust="spacing" textLength="113" x="52.5012" y="653.292">name &lt;unique&gt;</text><text fill="#FFFFFF" font-family="sans-serif" font-size="14" lengthAdjust="spacing" textLength="82" x="52.5012" y="669.5889">description</text></g><!--MD5=[1aa4b0d08578cc08712834368feed0d2]
class authors--><g id="elem_authors"><rect codeLine="26" fill="#303030" height="113.1875" id="authors" rx="2.5" ry="2.5" style="stroke:#E7E7E7;stroke-width:0.5;" width="112" x="218.0009" y="400"/><ellipse cx="244.7009" cy="416" fill="#2E5233" rx="11" ry="11" style="stroke:#E7E7E7;stroke-width:1.0;"/><path d="M243.4978,416.875 L244.9509,416.875 L244.9509,416.9844 C244.9509,417.3906 244.9822,417.5469 245.0603,417.7031 C245.2165,417.9531 245.4978,418.1094 245.7947,418.1094 C246.0447,418.1094 246.3103,417.9688 246.4665,417.75 C246.5915,417.5938 246.6228,417.4375 246.6228,416.9844 L246.6228,415.0625 C246.6228,414.9063 246.6228,414.8594 246.6072,414.7031 C246.5447,414.2344 246.2322,413.9219 245.779,413.9219 C245.529,413.9219 245.2634,414.0625 245.0915,414.2813 C244.9822,414.4531 244.9509,414.6094 244.9509,415.0625 L244.9509,415.1875 L243.4978,415.1875 L243.4978,412.7813 L247.4822,412.7813 L247.4822,413.6406 C247.4822,414.0469 247.5134,414.2188 247.5915,414.375 C247.7634,414.625 248.0447,414.7813 248.3259,414.7813 C248.5915,414.7813 248.8572,414.6406 249.029,414.4219 C249.1384,414.25 249.1697,414.1094 249.1697,413.6406 L249.1697,411.0938 L241.5447,411.0938 C241.1072,411.0938 240.9822,411.1094 240.8259,411.2031 C240.5759,411.3594 240.4197,411.6563 240.4197,411.9375 C240.4197,412.2188 240.5603,412.4688 240.779,412.6406 C240.9353,412.75 241.1228,412.7813 241.5447,412.7813 L241.7947,412.7813 L241.7947,419.2969 L241.5447,419.2969 C241.1384,419.2969 240.9822,419.3125 240.8259,419.4219 C240.5759,419.5938 240.4197,419.8594 240.4197,420.1563 C240.4197,420.4219 240.5603,420.6719 240.779,420.8281 C240.9197,420.9531 241.154,421 241.5447,421 L249.5447,421 L249.5447,418.4219 C249.5447,417.9844 249.5134,417.8438 249.4353,417.6875 C249.2634,417.4375 248.9822,417.2813 248.7009,417.2813 C248.4353,417.2813 248.1697,417.3906 247.9978,417.6406 C247.8884,417.7969 247.8572,417.9375 247.8572,418.4219 L247.8572,419.2969 L243.4978,419.2969 L243.4978,416.875 Z " fill="#FFFFFF"/><text fill="#FFFFFF" font-family="sans-serif" font-size="14" lengthAdjust="spacing" textLength="54" x="261.3009" y="420.8467">authors</text><line style="stroke:#E7E7E7;stroke-width:0.5;" x1="219.0009" x2="329.0009" y1="432" y2="432"/><ellipse cx="229.0009" cy="445.6484" fill="#000000" rx="3" ry="3" style="stroke:#000000;stroke-width:1.0;"/><text fill="#FFFFFF" font-family="sans-serif" font-size="14" lengthAdjust="spacing" textLength="86" x="238.0009" y="448.9951">id &lt;unique&gt;</text><line style="stroke:#E7E7E7;stroke-width:1.0;" x1="219.0009" x2="329.0009" y1="456.2969" y2="456.2969"/><ellipse cx="229.0009" cy="469.9453" fill="#000000" rx="3" ry="3" style="stroke:#000000;stroke-width:1.0;"/><text fill="#FFFFFF" font-family="sans-serif" font-size="14" lengthAdjust="spacing" textLength="70" x="238.0009" y="473.292">nickname</text><text fill="#FFFFFF" font-family="sans-serif" font-size="14" lengthAdjust="spacing" textLength="77" x="238.0009" y="489.5889">first_name</text><text fill="#FFFFFF" font-family="sans-serif" font-size="14" lengthAdjust="spacing" textLength="73" x="238.0009" y="505.8857">last_name</text></g><!--MD5=[8413f8248b2da7966d2de021109ec289]
class users--><g id="elem_users"><rect codeLine="34" fill="#303030" height="113.1875" id="users" rx="2.5" ry="2.5" style="stroke:#E7E7E7;stroke-width:0.5;" width="138" x="412.0009" y="400"/><ellipse cx="458.2509" cy="416" fill="#2E5233" rx="11" ry="11" style="stroke:#E7E7E7;stroke-width:1.0;"/><path d="M457.0478,416.875 L458.5009,416.875 L458.5009,416.9844 C458.5009,417.3906 458.5322,417.5469 458.6103,417.7031 C458.7665,417.9531 459.0478,418.1094 459.3447,418.1094 C459.5947,418.1094 459.8603,417.9688 460.0165,417.75 C460.1415,417.5938 460.1728,417.4375 460.1728,416.9844 L460.1728,415.0625 C460.1728,414.9063 460.1728,414.8594 460.1572,414.7031 C460.0947,414.2344 459.7822,413.9219 459.329,413.9219 C459.079,413.9219 458.8134,414.0625 458.6415,414.2813 C458.5322,414.4531 458.5009,414.6094 458.5009,415.0625 L458.5009,415.1875 L457.0478,415.1875 L457.0478,412.7813 L461.0322,412.7813 L461.0322,413.6406 C461.0322,414.0469 461.0634,414.2188 461.1415,414.375 C461.3134,414.625 461.5947,414.7813 461.8759,414.7813 C462.1415,414.7813 462.4072,414.6406 462.579,414.4219 C462.6884,414.25 462.7197,414.1094 462.7197,413.6406 L462.7197,411.0938 L455.0947,411.0938 C454.6572,411.0938 454.5322,411.1094 454.3759,411.2031 C454.1259,411.3594 453.9697,411.6563 453.9697,411.9375 C453.9697,412.2188 454.1103,412.4688 454.329,412.6406 C454.4853,412.75 454.6728,412.7813 455.0947,412.7813 L455.3447,412.7813 L455.3447,419.2969 L455.0947,419.2969 C454.6884,419.2969 454.5322,419.3125 454.3759,419.4219 C454.1259,419.5938 453.9697,419.8594 453.9697,420.1563 C453.9697,420.4219 454.1103,420.6719 454.329,420.8281 C454.4697,420.9531 454.704,421 455.0947,421 L463.0947,421 L463.0947,418.4219 C463.0947,417.9844 463.0634,417.8438 462.9853,417.6875 C462.8134,417.4375 462.5322,417.2813 462.2509,417.2813 C461.9853,417.2813 461.7197,417.3906 461.5478,417.6406 C461.4384,417.7969 461.4072,417.9375 461.4072,418.4219 L461.4072,419.2969 L457.0478,419.2969 L457.0478,416.875 Z " fill="#FFFFFF"/><text fill="#FFFFFF" font-family="sans-serif" font-size="14" lengthAdjust="spacing" textLength="37" x="478.7509" y="420.8467">users</text><line style="stroke:#E7E7E7;stroke-width:0.5;" x1="413.0009" x2="549.0009" y1="432" y2="432"/><ellipse cx="423.0009" cy="445.6484" fill="#000000" rx="3" ry="3" style="stroke:#000000;stroke-width:1.0;"/><text fill="#FFFFFF" font-family="sans-serif" font-size="14" lengthAdjust="spacing" textLength="86" x="432.0009" y="448.9951">id &lt;unique&gt;</text><line style="stroke:#E7E7E7;stroke-width:1.0;" x1="413.0009" x2="549.0009" y1="456.2969" y2="456.2969"/><ellipse cx="423.0009" cy="469.9453" fill="#000000" rx="3" ry="3" style="stroke:#000000;stroke-width:1.0;"/><text fill="#FFFFFF" font-family="sans-serif" font-size="14" lengthAdjust="spacing" textLength="112" x="432.0009" y="473.292">email &lt;unique&gt;</text><text fill="#FFFFFF" font-family="sans-serif" font-size="14" lengthAdjust="spacing" textLength="77" x="432.0009" y="489.5889">first_name</text><text fill="#FFFFFF" font-family="sans-serif" font-size="14" lengthAdjust="spacing" textLength="73" x="432.0009" y="505.8857">last_name</text></g><!--MD5=[822156b9135e361491208f873d4c303b]
class playlists--><g id="elem_playlists"><rect codeLine="42" fill="#303030" height="113.1875" id="playlists" rx="2.5" ry="2.5" style="stroke:#E7E7E7;stroke-width:0.5;" width="112" x="366.0009" y="195.5"/><ellipse cx="390.4509" cy="211.5" fill="#2E5233" rx="11" ry="11" style="stroke:#E7E7E7;stroke-width:1.0;"/><path d="M389.2478,212.375 L390.7009,212.375 L390.7009,212.4844 C390.7009,212.8906 390.7322,213.0469 390.8103,213.2031 C390.9665,213.4531 391.2478,213.6094 391.5447,213.6094 C391.7947,213.6094 392.0603,213.4688 392.2165,213.25 C392.3415,213.0938 392.3728,212.9375 392.3728,212.4844 L392.3728,210.5625 C392.3728,210.4063 392.3728,210.3594 392.3572,210.2031 C392.2947,209.7344 391.9822,209.4219 391.529,209.4219 C391.279,209.4219 391.0134,209.5625 390.8415,209.7813 C390.7322,209.9531 390.7009,210.1094 390.7009,210.5625 L390.7009,210.6875 L389.2478,210.6875 L389.2478,208.2813 L393.2322,208.2813 L393.2322,209.1406 C393.2322,209.5469 393.2634,209.7188 393.3415,209.875 C393.5134,210.125 393.7947,210.2813 394.0759,210.2813 C394.3415,210.2813 394.6072,210.1406 394.779,209.9219 C394.8884,209.75 394.9197,209.6094 394.9197,209.1406 L394.9197,206.5938 L387.2947,206.5938 C386.8572,206.5938 386.7322,206.6094 386.5759,206.7031 C386.3259,206.8594 386.1697,207.1563 386.1697,207.4375 C386.1697,207.7188 386.3103,207.9688 386.529,208.1406 C386.6853,208.25 386.8728,208.2813 387.2947,208.2813 L387.5447,208.2813 L387.5447,214.7969 L387.2947,214.7969 C386.8884,214.7969 386.7322,214.8125 386.5759,214.9219 C386.3259,215.0938 386.1697,215.3594 386.1697,215.6563 C386.1697,215.9219 386.3103,216.1719 386.529,216.3281 C386.6697,216.4531 386.904,216.5 387.2947,216.5 L395.2947,216.5 L395.2947,213.9219 C395.2947,213.4844 395.2634,213.3438 395.1853,213.1875 C395.0134,212.9375 394.7322,212.7813 394.4509,212.7813 C394.1853,212.7813 393.9197,212.8906 393.7478,213.1406 C393.6384,213.2969 393.6072,213.4375 393.6072,213.9219 L393.6072,214.7969 L389.2478,214.7969 L389.2478,212.375 Z " fill="#FFFFFF"/><text fill="#FFFFFF" font-family="sans-serif" font-size="14" lengthAdjust="spacing" textLength="59" x="406.5509" y="216.3467">playlists</text><line style="stroke:#E7E7E7;stroke-width:0.5;" x1="367.0009" x2="477.0009" y1="227.5" y2="227.5"/><ellipse cx="377.0009" cy="241.1484" fill="#000000" rx="3" ry="3" style="stroke:#000000;stroke-width:1.0;"/><text fill="#FFFFFF" font-family="sans-serif" font-size="14" lengthAdjust="spacing" textLength="86" x="386.0009" y="244.4951">id &lt;unique&gt;</text><line style="stroke:#E7E7E7;stroke-width:1.0;" x1="367.0009" x2="477.0009" y1="251.7969" y2="251.7969"/><ellipse cx="377.0009" cy="265.4453" fill="#000000" rx="3" ry="3" style="stroke:#000000;stroke-width:1.0;"/><text fill="#FFFFFF" font-family="sans-serif" font-size="14" lengthAdjust="spacing" textLength="40" x="386.0009" y="268.792">name</text><ellipse cx="377.0009" cy="281.7422" fill="#000000" rx="3" ry="3" style="stroke:#000000;stroke-width:1.0;"/><text fill="#FFFFFF" font-family="sans-serif" font-size="14" lengthAdjust="spacing" textLength="64" x="386.0009" y="285.0889">owner_id</text><ellipse cx="377.0009" cy="298.0391" fill="#000000" rx="3" ry="3" style="stroke:#000000;stroke-width:1.0;"/><text fill="#FFFFFF" font-family="sans-serif" font-size="14" lengthAdjust="spacing" textLength="62" x="386.0009" y="301.3857">is_public</text></g><!--MD5=[cae4a22f856d2eac668ec4bde4531000]
class playlists_songs--><g id="elem_playlists_songs"><rect codeLine="50" fill="#303030" height="96.8906" id="playlists_songs" rx="2.5" ry="2.5" style="stroke:#E7E7E7;stroke-width:0.5;" width="139" x="225.5009" y="7"/><ellipse cx="240.5009" cy="23" fill="#2E5233" rx="11" ry="11" style="stroke:#E7E7E7;stroke-width:1.0;"/><path d="M239.2978,23.875 L240.7509,23.875 L240.7509,23.9844 C240.7509,24.3906 240.7822,24.5469 240.8603,24.7031 C241.0165,24.9531 241.2978,25.1094 241.5947,25.1094 C241.8447,25.1094 242.1103,24.9688 242.2665,24.75 C242.3915,24.5938 242.4228,24.4375 242.4228,23.9844 L242.4228,22.0625 C242.4228,21.9063 242.4228,21.8594 242.4072,21.7031 C242.3447,21.2344 242.0322,20.9219 241.579,20.9219 C241.329,20.9219 241.0634,21.0625 240.8915,21.2813 C240.7822,21.4531 240.7509,21.6094 240.7509,22.0625 L240.7509,22.1875 L239.2978,22.1875 L239.2978,19.7813 L243.2822,19.7813 L243.2822,20.6406 C243.2822,21.0469 243.3134,21.2188 243.3915,21.375 C243.5634,21.625 243.8447,21.7813 244.1259,21.7813 C244.3915,21.7813 244.6572,21.6406 244.829,21.4219 C244.9384,21.25 244.9697,21.1094 244.9697,20.6406 L244.9697,18.0938 L237.3447,18.0938 C236.9072,18.0938 236.7822,18.1094 236.6259,18.2031 C236.3759,18.3594 236.2197,18.6563 236.2197,18.9375 C236.2197,19.2188 236.3603,19.4688 236.579,19.6406 C236.7353,19.75 236.9228,19.7813 237.3447,19.7813 L237.5947,19.7813 L237.5947,26.2969 L237.3447,26.2969 C236.9384,26.2969 236.7822,26.3125 236.6259,26.4219 C236.3759,26.5938 236.2197,26.8594 236.2197,27.1563 C236.2197,27.4219 236.3603,27.6719 236.579,27.8281 C236.7197,27.9531 236.954,28 237.3447,28 L245.3447,28 L245.3447,25.4219 C245.3447,24.9844 245.3134,24.8438 245.2353,24.6875 C245.0634,24.4375 244.7822,24.2813 244.5009,24.2813 C244.2353,24.2813 243.9697,24.3906 243.7978,24.6406 C243.6884,24.7969 243.6572,24.9375 243.6572,25.4219 L243.6572,26.2969 L239.2978,26.2969 L239.2978,23.875 Z " fill="#FFFFFF"/><text fill="#FFFFFF" font-family="sans-serif" font-size="14" lengthAdjust="spacing" textLength="107" x="254.5009" y="27.8467">playlists_songs</text><line style="stroke:#E7E7E7;stroke-width:0.5;" x1="226.5009" x2="363.5009" y1="39" y2="39"/><ellipse cx="236.5009" cy="52.6484" fill="#000000" rx="3" ry="3" style="stroke:#000000;stroke-width:1.0;"/><text fill="#FFFFFF" font-family="sans-serif" font-size="14" lengthAdjust="spacing" textLength="86" x="245.5009" y="55.9951">id &lt;unique&gt;</text><line style="stroke:#E7E7E7;stroke-width:1.0;" x1="226.5009" x2="363.5009" y1="63.2969" y2="63.2969"/><ellipse cx="236.5009" cy="76.9453" fill="#000000" rx="3" ry="3" style="stroke:#000000;stroke-width:1.0;"/><text fill="#FFFFFF" font-family="sans-serif" font-size="14" lengthAdjust="spacing" textLength="72" x="245.5009" y="80.292">playlist_id</text><ellipse cx="236.5009" cy="93.2422" fill="#000000" rx="3" ry="3" style="stroke:#000000;stroke-width:1.0;"/><text fill="#FFFFFF" font-family="sans-serif" font-size="14" lengthAdjust="spacing" textLength="54" x="245.5009" y="96.5889">song_id</text></g><!--MD5=[a5dd90ade95e2eaa961b575a9decf94d]
class playlists_users--><g id="elem_playlists_users"><rect codeLine="57" fill="#303030" height="96.8906" id="playlists_users" rx="2.5" ry="2.5" style="stroke:#E7E7E7;stroke-width:0.5;" width="135" x="442.5009" y="7"/><ellipse cx="457.5009" cy="23" fill="#2E5233" rx="11" ry="11" style="stroke:#E7E7E7;stroke-width:1.0;"/><path d="M456.2978,23.875 L457.7509,23.875 L457.7509,23.9844 C457.7509,24.3906 457.7822,24.5469 457.8603,24.7031 C458.0165,24.9531 458.2978,25.1094 458.5947,25.1094 C458.8447,25.1094 459.1103,24.9688 459.2665,24.75 C459.3915,24.5938 459.4228,24.4375 459.4228,23.9844 L459.4228,22.0625 C459.4228,21.9063 459.4228,21.8594 459.4072,21.7031 C459.3447,21.2344 459.0322,20.9219 458.579,20.9219 C458.329,20.9219 458.0634,21.0625 457.8915,21.2813 C457.7822,21.4531 457.7509,21.6094 457.7509,22.0625 L457.7509,22.1875 L456.2978,22.1875 L456.2978,19.7813 L460.2822,19.7813 L460.2822,20.6406 C460.2822,21.0469 460.3134,21.2188 460.3915,21.375 C460.5634,21.625 460.8447,21.7813 461.1259,21.7813 C461.3915,21.7813 461.6572,21.6406 461.829,21.4219 C461.9384,21.25 461.9697,21.1094 461.9697,20.6406 L461.9697,18.0938 L454.3447,18.0938 C453.9072,18.0938 453.7822,18.1094 453.6259,18.2031 C453.3759,18.3594 453.2197,18.6563 453.2197,18.9375 C453.2197,19.2188 453.3603,19.4688 453.579,19.6406 C453.7353,19.75 453.9228,19.7813 454.3447,19.7813 L454.5947,19.7813 L454.5947,26.2969 L454.3447,26.2969 C453.9384,26.2969 453.7822,26.3125 453.6259,26.4219 C453.3759,26.5938 453.2197,26.8594 453.2197,27.1563 C453.2197,27.4219 453.3603,27.6719 453.579,27.8281 C453.7197,27.9531 453.954,28 454.3447,28 L462.3447,28 L462.3447,25.4219 C462.3447,24.9844 462.3134,24.8438 462.2353,24.6875 C462.0634,24.4375 461.7822,24.2813 461.5009,24.2813 C461.2353,24.2813 460.9697,24.3906 460.7978,24.6406 C460.6884,24.7969 460.6572,24.9375 460.6572,25.4219 L460.6572,26.2969 L456.2978,26.2969 L456.2978,23.875 Z " fill="#FFFFFF"/><text fill="#FFFFFF" font-family="sans-serif" font-size="14" lengthAdjust="spacing" textLength="103" x="471.5009" y="27.8467">playlists_users</text><line style="stroke:#E7E7E7;stroke-width:0.5;" x1="443.5009" x2="576.5009" y1="39" y2="39"/><ellipse cx="453.5009" cy="52.6484" fill="#000000" rx="3" ry="3" style="stroke:#000000;stroke-width:1.0;"/><text fill="#FFFFFF" font-family="sans-serif" font-size="14" lengthAdjust="spacing" textLength="86" x="462.5009" y="55.9951">id &lt;unique&gt;</text><line style="stroke:#E7E7E7;stroke-width:1.0;" x1="443.5009" x2="576.5009" y1="63.2969" y2="63.2969"/><ellipse cx="453.5009" cy="76.9453" fill="#000000" rx="3" ry="3" style="stroke:#000000;stroke-width:1.0;"/><text fill="#FFFFFF" font-family="sans-serif" font-size="14" lengthAdjust="spacing" textLength="72" x="462.5009" y="80.292">playlist_id</text><ellipse cx="453.5009" cy="93.2422" fill="#000000" rx="3" ry="3" style="stroke:#000000;stroke-width:1.0;"/><text fill="#FFFFFF" font-family="sans-serif" font-size="14" lengthAdjust="spacing" textLength="50" x="462.5009" y="96.5889">user_id</text></g><!--MD5=[5d85dcf1d3ac10d930ebbbbea0cd0dc9]
link songs to songs_genres--><g id="link_songs_songs_genres"><path codeLine="64" d="M159.0139,217.752 C123.5679,241.721 211.3239,449.432 176.0719,473.691 " fill="none" id="songs-songs_genres" style="stroke:#E7E7E7;stroke-width:1.0;"/><line style="stroke:#E7E7E7;stroke-width:1.0;" x1="162.0659" x2="164.2359" y1="212.735" y2="220.435"/><line style="stroke:#E7E7E7;stroke-width:1.0;" x1="159.1784" x2="161.3484" y1="213.5487" y2="221.2488"/><line style="stroke:#E7E7E7;stroke-width:1.0;" x1="159.3009" x2="167.0009" y1="217.67" y2="215.5"/><line style="stroke:#E7E7E7;stroke-width:1.0;" x1="175.6921" x2="169.6519" y1="473.7986" y2="481.7684"/><line style="stroke:#E7E7E7;stroke-width:1.0;" x1="175.6921" x2="166.3499" y1="473.7986" y2="470.2316"/><line style="stroke:#E7E7E7;stroke-width:1.0;" x1="175.6921" x2="168.0009" y1="473.7986" y2="476"/><line style="stroke:#E7E7E7;stroke-width:1.0;" x1="178.7156" x2="176.5142" y1="477.0939" y2="469.4027"/></g><!--MD5=[41407c888170988fc9bf31c44429a3c8]
link songs_genres to genres--><g id="link_songs_genres_genres"><path codeLine="65" d="M29.3956,495.263 C9.4595,513.367 6,601.339 24.2751,620.3664 " fill="none" id="songs_genres-genres" style="stroke:#E7E7E7;stroke-width:1.0;"/><line style="stroke:#E7E7E7;stroke-width:1.0;" x1="29.6494" x2="34.6354" y1="495.1545" y2="486.4861"/><line style="stroke:#E7E7E7;stroke-width:1.0;" x1="29.6494" x2="39.3671" y1="495.1545" y2="497.5139"/><line style="stroke:#E7E7E7;stroke-width:1.0;" x1="29.6494" x2="37.0012" y1="495.1545" y2="492"/><line style="stroke:#E7E7E7;stroke-width:1.0;" x1="26.2342" x2="29.3887" y1="492.2672" y2="499.619"/><line style="stroke:#E7E7E7;stroke-width:1.0;" x1="22.0472" x2="32.0012" y1="619.3183" y2="624"/><ellipse cx="22.0472" cy="619.3183" fill="none" rx="4" ry="4" style="stroke:#E7E7E7;stroke-width:1.0;"/><line style="stroke:#E7E7E7;stroke-width:1.0;" x1="30.084" x2="26.6792" y1="618.6779" y2="625.9172"/></g><!--MD5=[4b2ffc3422d95602e7d6588636f9da3c]
link songs to authors--><g id="link_songs_authors"><path codeLine="66" d="M318.8119,328.177 C317.8989,330.817 316.3889,333.688 315.0009,336 C288.9109,379.462 243.1379,351.979 218.0009,396 C209.1559,411.49 199.4889,434.625 209.0199,441.799 " fill="none" id="songs-authors" style="stroke:#E7E7E7;stroke-width:1.0;"/><line style="stroke:#E7E7E7;stroke-width:1.0;" x1="318.7508" x2="310.3665" y1="328.0125" y2="322.5624"/><line style="stroke:#E7E7E7;stroke-width:1.0;" x1="318.7508" x2="321.6353" y1="328.0125" y2="318.4376"/><line style="stroke:#E7E7E7;stroke-width:1.0;" x1="318.7508" x2="316.0009" y1="328.0125" y2="320.5"/><line style="stroke:#E7E7E7;stroke-width:1.0;" x1="315.682" x2="323.1945" y1="331.2656" y2="328.5157"/><line style="stroke:#E7E7E7;stroke-width:1.0;" x1="206.3969" x2="217.0009" y1="441.075" y2="444"/><ellipse cx="206.3969" cy="441.075" fill="none" rx="4" ry="4" style="stroke:#E7E7E7;stroke-width:1.0;"/><line style="stroke:#E7E7E7;stroke-width:1.0;" x1="214.2086" x2="212.0813" y1="439.0804" y2="446.7923"/></g><!--MD5=[e2ac50339910d14ee490cc5b632d291c]
link playlists to users--><g id="link_playlists_users"><path codeLine="67" d="M485.9539,283.799 C487.5509,290.094 481.4049,302.092 478.0009,311.5 C461.7879,356.311 427.9809,351.106 412.0009,396 C406.0759,412.647 394.6449,434.641 403.0089,441.709 " fill="none" id="playlists-users" style="stroke:#E7E7E7;stroke-width:1.0;"/><line style="stroke:#E7E7E7;stroke-width:1.0;" x1="485.8057" x2="475.846" y1="283.7066" y2="284.6036"/><line style="stroke:#E7E7E7;stroke-width:1.0;" x1="485.8057" x2="482.1558" y1="283.7066" y2="274.3964"/><line style="stroke:#E7E7E7;stroke-width:1.0;" x1="485.8057" x2="479.0009" y1="283.7066" y2="279.5"/><line style="stroke:#E7E7E7;stroke-width:1.0;" x1="485.4036" x2="489.6102" y1="288.1606" y2="281.3558"/><line style="stroke:#E7E7E7;stroke-width:1.0;" x1="400.4273" x2="411.0009" y1="440.9672" y2="444"/><ellipse cx="400.4273" cy="440.9672" fill="none" rx="4" ry="4" style="stroke:#E7E7E7;stroke-width:1.0;"/><line style="stroke:#E7E7E7;stroke-width:1.0;" x1="408.2588" x2="406.0531" y1="439.0522" y2="446.7421"/></g><!--MD5=[0975b4f0b872660d3bebb42062fe734b]
link playlists_songs to playlists--><g id="link_playlists_songs_playlists"><path codeLine="68" d="M374.2399,75.885 C424.5039,88.251 306.5029,226.241 356.7579,238.614 " fill="none" id="playlists_songs-playlists" style="stroke:#E7E7E7;stroke-width:1.0;"/><line style="stroke:#E7E7E7;stroke-width:1.0;" x1="373.955" x2="365.3591" y1="75.8557" y2="80.9656"/><line style="stroke:#E7E7E7;stroke-width:1.0;" x1="373.955" x2="366.6427" y1="75.8557" y2="69.0344"/><line style="stroke:#E7E7E7;stroke-width:1.0;" x1="373.955" x2="366.0009" y1="75.8557" y2="75"/><line style="stroke:#E7E7E7;stroke-width:1.0;" x1="375.5157" x2="376.3714" y1="80.0467" y2="72.0926"/><line style="stroke:#E7E7E7;stroke-width:1.0;" x1="354.0638" x2="365.0009" y1="238.3254" y2="239.5"/><ellipse cx="354.0638" cy="238.3254" fill="none" rx="4" ry="4" style="stroke:#E7E7E7;stroke-width:1.0;"/><line style="stroke:#E7E7E7;stroke-width:1.0;" x1="361.4509" x2="360.5967" y1="235.0957" y2="243.05"/></g><!--MD5=[c064ad7ceef1b23aa51ac53f32fe7e98]
link playlists_songs to songs--><g id="link_playlists_songs_songs"><path codeLine="69" d="M222.0249,98.567 C222.9519,101.377 224.5629,104.488 226.0009,107 C249.7059,148.399 292.1669,125.115 315.0009,167 C323.7089,182.972 333.7829,206.519 323.7679,213.488 " fill="none" id="playlists_songs-songs" style="stroke:#E7E7E7;stroke-width:1.0;"/><line style="stroke:#E7E7E7;stroke-width:1.0;" x1="222.0722" x2="219.4174" y1="98.4446" y2="88.8035"/><line style="stroke:#E7E7E7;stroke-width:1.0;" x1="222.0722" x2="230.5844" y1="98.4446" y2="93.1965"/><line style="stroke:#E7E7E7;stroke-width:1.0;" x1="222.0722" x2="225.0009" y1="98.4446" y2="91"/><line style="stroke:#E7E7E7;stroke-width:1.0;" x1="217.6177" x2="225.0624" y1="98.8414" y2="101.7702"/><line style="stroke:#E7E7E7;stroke-width:1.0;" x1="326.6491" x2="316.0009" y1="212.7402" y2="215.5"/><ellipse cx="326.6491" cy="212.7402" fill="none" rx="4" ry="4" style="stroke:#E7E7E7;stroke-width:1.0;"/><line style="stroke:#E7E7E7;stroke-width:1.0;" x1="320.8765" x2="318.8694" y1="218.3685" y2="210.6244"/></g><!--MD5=[0315dae4b876d99a1744e9a620097b3f]
link playlists_users to playlists--><g id="link_playlists_users_playlists"><path codeLine="70" d="M433.7499,75.885 C384.9359,88.251 536.0599,226.241 487.2559,238.614 " fill="none" id="playlists_users-playlists" style="stroke:#E7E7E7;stroke-width:1.0;"/><line style="stroke:#E7E7E7;stroke-width:1.0;" x1="434.0467" x2="441.3602" y1="75.8543" y2="69.0343"/><line style="stroke:#E7E7E7;stroke-width:1.0;" x1="434.0467" x2="442.6416" y1="75.8543" y2="80.9657"/><line style="stroke:#E7E7E7;stroke-width:1.0;" x1="434.0467" x2="442.0009" y1="75.8543" y2="75"/><line style="stroke:#E7E7E7;stroke-width:1.0;" x1="431.631" x2="432.4852" y1="72.0907" y2="80.045"/><line style="stroke:#E7E7E7;stroke-width:1.0;" x1="489.9382" x2="479.0009" y1="238.3273" y2="239.5"/><ellipse cx="489.9382" cy="238.3273" fill="none" rx="4" ry="4" style="stroke:#E7E7E7;stroke-width:1.0;"/><line style="stroke:#E7E7E7;stroke-width:1.0;" x1="483.4046" x2="482.5517" y1="243.0508" y2="235.0964"/></g><!--MD5=[f0a94114c72853622d5cb21515f40e05]
link playlists_users to users--><g id="link_playlists_users_users"><path codeLine="71" d="M586.9079,92.278 C653.1089,114.527 628.9239,420.031 559.2559,442.675 " fill="none" id="playlists_users-users" style="stroke:#E7E7E7;stroke-width:1.0;"/><line style="stroke:#E7E7E7;stroke-width:1.0;" x1="586.8983" x2="578.043" y1="92.2772" y2="96.923"/><line style="stroke:#E7E7E7;stroke-width:1.0;" x1="586.8983" x2="579.9588" y1="92.2772" y2="85.077"/><line style="stroke:#E7E7E7;stroke-width:1.0;" x1="586.8983" x2="579.0009" y1="92.2772" y2="91"/><line style="stroke:#E7E7E7;stroke-width:1.0;" x1="588.2341" x2="589.5113" y1="96.5452" y2="88.6478"/><line style="stroke:#E7E7E7;stroke-width:1.0;" x1="561.8617" x2="551.0009" y1="442.2557" y2="444"/><ellipse cx="561.8617" cy="442.2557" fill="none" rx="4" ry="4" style="stroke:#E7E7E7;stroke-width:1.0;"/><line style="stroke:#E7E7E7;stroke-width:1.0;" x1="555.5846" x2="554.316" y1="447.3151" y2="439.4163"/></g><!--MD5=[faba9192f3a761bebfa64ad04e57c70b]
@startuml
entity songs {
    *id <unique>
    - -
    *name
    *likes
    *listens
    lyrics
    *file_uri <unique>
    *author_id
}

entity songs_genres {
    *id <unique>
    - -
    *song_id
    *genre_id
}

entity genres {
    *id <unique>
    - -
    *name <unique>
    description
}

entity authors{
    *id <unique>
    - -
    * nickname
    first_name
    last_name
}

entity users{
    *id <unique>
    - -
    *email <unique>
    first_name
    last_name
}

entity playlists{
    *id <unique>
    - -
    *name
    *owner_id
    *is_public
}

entity playlists_songs{
    *id <unique>
    - -
    *playlist_id
    *song_id
}

entity playlists_users{
    *id <unique>
    - -
    *playlist_id
    *user_id
}

songs::id ||- -|{ songs_genres::song_id
songs_genres::genre_id }|- -o| genres::id
songs::author_id }|- -o| authors::id
playlists::owner_id }|- -o| users::id
playlists_songs::playlist_id }|- -o| playlists::id
playlists_songs::song_id }|- -o| songs::id
playlists_users::playlist_id }|- -o| playlists::id
playlists_users::user_id }|- -o| users::id
@enduml

PlantUML version 1.2022.14beta1(Unknown compile time)
(GPL source distribution)
Java Runtime: Java(TM) SE Runtime Environment
JVM: Java HotSpot(TM) 64-Bit Server VM
Default Encoding: UTF-8
Language: en
Country: US
--></g></svg>